<svg width="1072" height="150" viewBox="0 0 1072 150" fill="none" xmlns="http://www.w3.org/2000/svg">
<path d="M34.4108 75.012C57.9428 77.768 58.5788 96.424 60.4868 114.656C62.1828 131.616 56.4588 148.364 37.1668 149C32.2908 149.212 25.5068 149 22.3268 149C21.6908 149 21.2668 149 20.4188 149C16.3908 149 14.2708 149 10.2428 149C9.81875 149 9.39475 149 8.97075 149C7.27475 149 4.09475 149 3.03475 149C1.33875 149 0.49075 147.092 1.55075 146.244C2.61075 145.184 9.18275 143.276 11.5148 135.22C14.4828 124.832 17.0268 115.928 15.9668 105.116C14.9068 94.728 9.39475 85.612 9.39475 75.012C9.39475 66.108 12.9988 58.052 14.6948 49.36C17.4508 36.64 15.3308 27.312 11.5148 15.016C9.18275 6.748 2.61075 4.62799 1.55075 3.77999C0.27875 2.71999 1.33875 0.811987 3.03475 0.811987C4.09475 0.811987 7.27475 0.811987 8.97075 0.811987C9.39475 0.811987 9.81875 0.811987 10.2428 0.811987C14.2708 0.811987 16.3908 0.811987 20.4188 0.811987C21.2668 0.811987 21.6908 0.811987 22.3268 0.811987C25.5068 0.811987 32.2908 0.59999 37.1668 0.811987C56.4588 1.44799 62.1828 18.196 60.4868 35.156C58.5788 53.388 57.9428 72.256 34.4108 75.012ZM23.5988 63.14C23.3868 65.472 24.6588 70.56 31.0188 69.924C45.8588 68.864 48.6148 47.664 49.8868 35.58C50.9468 26.04 50.0988 9.928 37.1668 9.50399C28.4748 9.29199 24.6588 19.256 25.7188 26.676C27.2027 39.396 25.5068 50.632 23.5988 63.14ZM37.1668 140.308C50.0988 140.096 50.9468 123.772 49.8868 114.232C48.6148 102.36 45.8588 81.16 31.0188 79.888C24.6588 79.252 23.3868 84.34 23.5988 86.672C25.5068 99.392 27.2027 110.416 25.7188 123.348C24.6588 130.768 28.4748 140.732 37.1668 140.308ZM123.153 112.536C124.425 112.536 125.485 113.808 125.697 115.08C127.393 125.892 132.481 135.644 133.965 146.456C133.965 147.94 132.905 149 131.421 149C116.793 149 102.165 149 87.5366 149C82.6606 149 80.3286 149 75.4526 149C75.0286 149 74.6046 149 74.1806 149C72.4846 149 69.3046 149 68.2446 149C66.5486 149 65.7006 147.092 66.7606 146.244C67.8206 145.184 74.3926 143.276 76.7246 135.22C79.6926 124.832 82.2366 115.928 81.1766 105.116C80.1166 94.728 74.6046 85.612 74.6046 75.012C74.6046 66.108 78.2086 58.052 79.9046 49.36C82.6606 36.64 80.5406 27.312 76.7246 15.016C74.3926 6.748 67.8206 4.62799 66.7606 3.77999C65.4886 2.71999 66.5486 0.811987 68.2446 0.811987C69.3046 0.811987 72.4846 0.811987 74.1806 0.811987C74.6046 0.811987 75.0286 0.811987 75.4526 0.811987C80.3286 0.811987 82.6606 0.811987 87.5366 0.811987C102.165 0.811987 116.793 0.811987 131.421 0.811987C132.905 0.811987 133.965 1.872 133.965 3.35599C132.481 14.168 127.393 23.92 125.697 34.732C125.485 36.216 124.425 37.276 123.153 37.276C118.701 37.276 116.793 37.276 113.189 37.276C111.281 37.276 112.129 34.732 112.977 33.672C114.037 32.612 118.277 27.948 119.549 22.86C121.033 17.772 117.005 9.928 108.949 9.716C100.893 9.716 89.2326 13.956 90.5046 23.92C93.0486 43 88.1726 60.384 87.7486 79.252C95.3806 72.468 105.133 67.592 114.673 65.048C121.033 63.352 121.881 58.688 122.517 57.628C123.153 56.78 125.273 57.628 125.697 59.324C126.121 60.172 126.545 62.08 126.969 63.564C127.393 65.26 127.817 66.532 127.817 66.532C128.241 68.44 128.453 69.288 128.665 71.196C128.665 71.196 128.665 71.408 128.665 71.832C128.877 73.316 128.877 77.132 128.665 78.404C128.453 80.1 126.333 81.16 125.485 80.1C124.637 79.04 122.093 70.348 114.885 72.468C104.285 75.648 94.1086 82.22 89.6566 93.032C91.7766 104.056 92.6246 114.656 90.5046 125.892C89.2326 136.068 100.893 140.308 108.949 140.096C117.005 139.884 121.033 132.04 119.549 126.952C118.277 121.864 114.037 117.2 112.977 116.14C112.129 115.08 111.281 112.536 113.189 112.536C116.793 112.536 118.701 112.536 123.153 112.536ZM213.19 0.811987C214.886 0.811987 215.734 2.71999 214.674 3.77999C213.614 4.62799 207.042 6.748 204.498 14.804C200.046 30.068 199.198 39.396 202.59 54.66C204.922 64.2 207.466 70.56 206.618 80.736C205.77 89.428 200.47 97.696 199.834 106.6C198.562 120.38 204.286 133.312 207.042 146.456C207.254 147.94 205.982 149 204.71 149C203.862 149 203.65 149 203.014 149C199.198 149 197.502 149 193.686 149C191.142 149 188.81 149 188.174 149C186.902 149 184.782 148.576 185.63 146.244C190.294 130.556 187.538 112.96 190.506 96.848C193.898 79.252 185.418 64.836 179.27 48.936C173.97 35.368 169.73 21.376 156.798 12.896C159.766 25.192 162.098 35.368 160.19 47.876C158.706 56.78 155.526 65.048 155.314 73.952C155.102 84.552 159.342 94.304 160.826 104.692C162.098 115.292 159.554 124.832 157.222 135.22C155.314 143.276 161.674 145.184 162.734 146.244C163.582 147.092 162.522 149 160.826 149C159.766 149 156.586 149 154.89 149C154.254 149 153.618 149 153.618 149C151.71 149 150.65 149 148.742 149C148.742 149 148.318 149 147.47 149C145.774 149 142.594 149 141.534 149C139.838 149 138.99 147.092 140.05 146.244C141.11 145.184 147.682 143.064 150.226 135.008C153.194 124.62 155.738 115.716 154.678 104.904C153.406 94.516 147.894 85.612 147.894 75.012C147.894 65.896 151.498 58.052 153.406 49.36C156.162 36.64 153.83 27.312 150.226 14.804C150.226 14.804 150.226 14.804 150.226 15.016C147.682 6.748 141.11 4.62799 140.05 3.77999C138.778 2.71999 139.838 0.811987 141.534 0.811987C143.23 0.811987 148.742 0.811987 148.742 0.811987C175.242 5.9 182.45 41.092 191.99 61.02C189.022 44.272 188.81 31.552 191.99 15.016C193.474 6.748 187.114 4.62799 186.054 3.77999C185.206 2.71999 186.266 0.811987 187.75 0.811987C189.022 0.811987 191.99 0.811987 193.898 0.811987C194.322 0.811987 194.534 0.811987 195.17 0.811987C199.41 0.811987 201.53 0.811987 205.982 0.811987C206.406 0.811987 206.618 0.811987 207.254 0.811987C208.95 0.811987 211.918 0.811987 213.19 0.811987ZM279.615 0.811987C281.311 0.811987 282.159 2.71999 281.099 3.77999C280.039 4.62799 273.467 6.748 270.923 14.804C263.927 37.064 269.651 46.816 272.619 68.228C275.375 86.672 264.563 102.784 266.895 121.652C270.287 136.704 261.383 149.212 245.271 149.212C244.847 149.212 244.635 149 244.211 149H243.999C238.487 149 233.611 147.728 229.159 144.336C224.495 140.944 221.315 136.492 219.407 132.04C217.287 127.8 215.167 122.712 213.471 116.564C213.047 115.08 213.895 113.596 215.167 113.384C220.043 111.9 222.375 111.052 226.827 109.568C227.675 109.356 228.523 110.204 228.735 111.264C228.735 117.2 228.947 122.288 229.583 126.528C230.855 134.372 236.155 142.216 244.847 142.004C256.083 141.792 257.143 130.132 254.811 121.652C253.115 103.208 261.595 86.46 259.475 68.228C257.143 47.876 252.903 35.792 257.991 15.016C260.111 6.748 253.539 4.62799 252.479 3.77999C251.631 2.71999 252.691 0.811987 254.387 0.811987C255.447 0.811987 258.415 0.811987 260.323 0.811987C260.747 0.811987 260.959 0.811987 261.595 0.811987C265.835 0.811987 267.955 0.811987 272.407 0.811987C272.831 0.811987 273.043 0.811987 273.679 0.811987C275.375 0.811987 278.555 0.811987 279.615 0.811987ZM365.257 146.244C366.317 147.092 365.469 149.212 363.773 149.212C362.713 149.212 359.745 149.212 358.049 149.212C357.413 149.212 357.201 149.212 356.565 149.212C351.901 149.212 349.781 149.212 345.329 149.212C344.905 149.212 344.905 149.212 344.693 149.212C342.785 149.212 336.849 149.212 335.365 149.212C333.881 149.212 332.609 147.092 333.669 146.244C334.517 145.184 341.089 143.276 339.605 135.22C333.881 121.016 331.125 108.72 330.277 93.668C311.621 98.968 304.201 118.472 296.145 134.372C296.145 134.584 295.933 134.796 295.933 135.008C292.117 143.064 298.265 145.184 299.325 146.244C300.173 147.092 299.113 149.212 297.417 149.212C295.721 149.212 290.633 149.212 290.209 149.212C287.453 149.212 286.181 149.212 283.425 149.212C283.425 149.212 283.001 149.212 282.577 149.212C281.093 149.212 277.489 149.212 276.217 149.212C274.521 149.212 273.461 147.092 274.733 146.244C275.793 145.184 284.697 142.852 288.725 135.008C299.325 113.808 296.145 98.968 300.597 76.92C304.625 56.992 312.469 39.184 315.437 18.62C315.013 17.136 314.801 16.5 314.377 15.016C312.257 6.96 303.141 4.62799 302.081 3.77999C301.021 2.71999 301.869 0.811987 303.565 0.811987C305.049 0.811987 309.501 0.811987 310.561 0.811987C310.773 0.811987 310.773 0.811987 310.773 0.811987C315.861 0.811987 318.405 0.811987 323.281 0.811987C323.281 0.811987 323.493 0.811987 323.917 0.811987C325.825 0.811987 330.913 0.811987 332.185 0.811987C333.881 0.811987 334.729 2.71999 333.669 3.77999C332.609 4.62799 327.097 6.53599 326.461 15.016C329.429 39.184 339.605 61.444 342.149 85.4C342.149 85.4 342.149 85.4 342.149 85.612C342.149 105.116 343.209 117.2 352.325 135.22C356.353 143.912 364.197 145.184 365.257 146.244ZM305.685 101.088C311.833 93.88 320.313 89.004 329.641 86.884C326.885 69.288 321.797 52.328 318.829 34.732C314.377 57.204 306.957 77.98 305.685 101.088ZM486.317 0.811987C488.013 0.811987 488.861 2.71999 487.801 3.77999C486.741 4.62799 480.593 6.53599 477.837 14.168C473.173 29.22 471.265 39.184 475.505 54.236C478.261 63.776 480.805 70.56 479.745 80.312C478.897 89.428 473.597 97.484 472.749 106.388C471.265 120.38 477.201 133.1 480.169 146.456C480.381 147.728 479.533 148.788 478.261 149C478.049 149 478.049 149 477.837 149C477.201 149 476.777 149 476.141 149C475.505 149 475.081 149 474.445 149C471.901 149 470.629 149 468.297 149C467.661 149 467.449 149 467.025 149C464.269 149 461.937 149 461.301 149H461.089C460.877 149 460.877 149 460.877 149C460.665 149 460.453 149 460.241 149C459.181 148.788 458.121 147.94 458.545 146.244C462.573 130.132 458.333 113.172 462.573 96.848C467.449 77.768 464.269 65.472 461.089 46.392C459.181 35.156 461.725 25.616 464.481 15.016C464.481 14.804 464.481 14.804 464.481 14.804C464.693 13.956 464.905 13.532 465.117 12.896C441.161 27.948 428.229 70.136 428.017 96.848C428.017 98.544 428.017 100.24 428.017 101.724C428.441 116.564 429.077 131.616 429.501 146.456C429.713 147.94 428.441 149 426.957 149C422.081 149 419.749 149 414.873 149C413.601 149 411.481 148.576 412.541 146.244C417.841 133.1 421.021 119.32 421.445 105.54C421.657 104.268 421.445 102.784 421.445 101.512C421.445 100.028 421.445 98.544 421.445 96.848C419.749 69.288 408.725 28.16 383.709 12.896C387.313 25.192 390.069 35.156 387.737 47.876C386.041 56.78 382.225 64.836 382.013 73.952C381.801 84.764 386.889 94.092 388.373 104.692C390.069 115.504 387.101 124.832 384.133 135.22C382.013 143.276 388.585 145.184 389.433 146.244C390.281 147.092 389.221 149 387.525 149C386.465 149 383.285 149 381.589 149C380.953 149 380.317 149 380.317 149C378.409 149 377.349 149 375.441 149C375.441 149 375.017 149 374.169 149C372.473 149 369.293 149 368.233 149C366.537 149 365.689 147.092 366.749 146.244C367.809 145.184 374.381 143.064 376.925 135.008C380.105 124.62 382.861 115.716 381.589 104.904C380.317 94.516 374.593 85.612 374.593 75.012C374.593 65.896 378.409 58.052 380.317 49.36C383.285 36.428 380.741 27.312 376.925 14.804C376.925 14.804 376.925 14.804 376.925 15.016C374.381 6.748 367.809 4.62799 366.749 3.77999C365.477 2.71999 366.537 0.811987 368.233 0.811987C369.929 0.811987 375.441 0.811987 375.441 0.811987C407.453 7.59599 417.205 47.452 424.201 73.528C431.833 48.3 441.797 7.38399 473.173 0.811987C473.173 0.811987 473.809 0.811987 474.657 0.811987C476.353 0.811987 477.201 0.811987 478.897 0.811987C479.533 0.811987 479.745 0.811987 480.381 0.811987C482.077 0.811987 485.045 0.811987 486.105 0.811987H486.317ZM520.623 146.244C521.471 147.092 520.411 149 518.715 149C517.655 149 514.475 149 512.779 149C512.355 149 512.143 149 511.507 149C507.267 149 504.935 149 500.695 149C500.271 149 499.847 149 499.423 149C497.727 149 494.547 149 493.487 149C491.791 149 490.943 147.092 492.003 146.244C493.063 145.184 499.423 143.276 502.179 135.22C505.571 124.832 508.539 115.928 507.055 105.116C505.995 94.728 499.635 85.824 499.635 75.012C499.635 65.896 503.875 58.264 505.783 49.36C508.751 36.428 506.419 27.524 502.179 15.016C499.423 6.748 493.063 4.62799 492.003 3.77999C490.943 2.71999 491.791 0.811987 493.487 0.811987C494.547 0.811987 497.727 0.811987 499.423 0.811987C499.847 0.811987 500.271 0.811987 500.695 0.811987C504.935 0.811987 507.267 0.811987 511.507 0.811987C512.143 0.811987 512.355 0.811987 512.779 0.811987C514.475 0.811987 517.655 0.811987 518.715 0.811987C520.411 0.811987 521.471 2.71999 520.623 3.77999C519.563 4.62799 512.991 6.748 515.535 14.804C519.775 27.312 522.319 36.216 519.351 49.36C517.231 58.052 513.203 65.684 513.203 74.8C513.203 85.612 519.139 94.516 520.623 104.904C521.895 115.928 518.927 124.62 515.535 135.008C512.991 143.064 519.563 145.184 520.623 146.244ZM602.201 0.811987C603.897 0.811987 604.745 2.71999 603.685 3.77999C602.625 4.62799 596.053 6.748 593.509 14.804C589.057 30.068 588.209 39.396 591.601 54.66C593.933 64.2 596.477 70.56 595.629 80.736C594.781 89.428 589.481 97.696 588.845 106.6C587.573 120.38 593.297 133.312 596.053 146.456C596.265 147.94 594.993 149 593.721 149C592.873 149 592.661 149 592.025 149C588.209 149 586.513 149 582.697 149C580.153 149 577.821 149 577.185 149C575.913 149 573.793 148.576 574.641 146.244C579.305 130.556 576.549 112.96 579.517 96.848C582.909 79.252 574.429 64.836 568.281 48.936C562.981 35.368 558.741 21.376 545.809 12.896C548.777 25.192 551.109 35.368 549.201 47.876C547.717 56.78 544.537 65.048 544.325 73.952C544.113 84.552 548.353 94.304 549.837 104.692C551.109 115.292 548.565 124.832 546.233 135.22C544.325 143.276 550.685 145.184 551.745 146.244C552.593 147.092 551.533 149 549.837 149C548.777 149 545.597 149 543.901 149C543.265 149 542.629 149 542.629 149C540.721 149 539.661 149 537.753 149C537.753 149 537.329 149 536.481 149C534.785 149 531.605 149 530.545 149C528.849 149 528.001 147.092 529.061 146.244C530.121 145.184 536.693 143.064 539.237 135.008C542.205 124.62 544.749 115.716 543.689 104.904C542.417 94.516 536.905 85.612 536.905 75.012C536.905 65.896 540.509 58.052 542.417 49.36C545.173 36.64 542.841 27.312 539.237 14.804C539.237 14.804 539.237 14.804 539.237 15.016C536.693 6.748 530.121 4.62799 529.061 3.77999C527.789 2.71999 528.849 0.811987 530.545 0.811987C532.241 0.811987 537.753 0.811987 537.753 0.811987C564.253 5.9 571.461 41.092 581.001 61.02C578.033 44.272 577.821 31.552 581.001 15.016C582.485 6.748 576.125 4.62799 575.065 3.77999C574.217 2.71999 575.277 0.811987 576.761 0.811987C578.033 0.811987 581.001 0.811987 582.909 0.811987C583.333 0.811987 583.545 0.811987 584.181 0.811987C588.421 0.811987 590.541 0.811987 594.993 0.811987C595.417 0.811987 595.629 0.811987 596.265 0.811987C597.961 0.811987 600.929 0.811987 602.201 0.811987ZM774.297 0.811987C775.993 0.811987 776.841 2.71999 775.781 3.77999C774.721 4.62799 768.573 6.53599 765.817 14.168C761.153 29.22 759.245 39.184 763.485 54.236C766.241 63.776 768.785 70.56 767.725 80.312C766.877 89.428 761.577 97.484 760.729 106.388C759.245 120.38 765.181 133.1 768.149 146.456C768.361 147.728 767.513 148.788 766.241 149C766.029 149 766.029 149 765.817 149C765.181 149 764.757 149 764.121 149C763.485 149 763.061 149 762.425 149C759.881 149 758.609 149 756.277 149C755.641 149 755.429 149 755.005 149C752.249 149 749.917 149 749.281 149H749.069C748.857 149 748.857 149 748.857 149C748.645 149 748.433 149 748.221 149C747.161 148.788 746.101 147.94 746.525 146.244C750.553 130.132 746.313 113.172 750.553 96.848C755.429 77.768 752.249 65.472 749.069 46.392C747.161 35.156 749.705 25.616 752.461 15.016C752.461 14.804 752.461 14.804 752.461 14.804C752.673 13.956 752.885 13.532 753.097 12.896C729.141 27.948 716.209 70.136 715.997 96.848C715.997 98.544 715.997 100.24 715.997 101.724C716.421 116.564 717.057 131.616 717.481 146.456C717.693 147.94 716.421 149 714.937 149C710.061 149 707.729 149 702.853 149C701.581 149 699.461 148.576 700.521 146.244C705.821 133.1 709.001 119.32 709.425 105.54C709.637 104.268 709.425 102.784 709.425 101.512C709.425 100.028 709.425 98.544 709.425 96.848C707.729 69.288 696.705 28.16 671.689 12.896C675.293 25.192 678.049 35.156 675.717 47.876C674.021 56.78 670.205 64.836 669.993 73.952C669.781 84.764 674.869 94.092 676.353 104.692C678.049 115.504 675.081 124.832 672.113 135.22C669.993 143.276 676.565 145.184 677.413 146.244C678.261 147.092 677.201 149 675.505 149C674.445 149 671.265 149 669.569 149C668.933 149 668.297 149 668.297 149C666.389 149 665.329 149 663.421 149C663.421 149 662.997 149 662.149 149C660.453 149 657.273 149 656.213 149C654.517 149 653.669 147.092 654.729 146.244C655.789 145.184 662.361 143.064 664.905 135.008C668.085 124.62 670.841 115.716 669.569 104.904C668.297 94.516 662.573 85.612 662.573 75.012C662.573 65.896 666.389 58.052 668.297 49.36C671.265 36.428 668.721 27.312 664.905 14.804C664.905 14.804 664.905 14.804 664.905 15.016C662.361 6.748 655.789 4.62799 654.729 3.77999C653.457 2.71999 654.517 0.811987 656.213 0.811987C657.909 0.811987 663.421 0.811987 663.421 0.811987C695.433 7.59599 705.185 47.452 712.181 73.528C719.813 48.3 729.777 7.38399 761.153 0.811987C761.153 0.811987 761.789 0.811987 762.637 0.811987C764.333 0.811987 765.181 0.811987 766.877 0.811987C767.513 0.811987 767.725 0.811987 768.361 0.811987C770.057 0.811987 773.025 0.811987 774.085 0.811987H774.297ZM839.343 38.972C842.523 52.116 852.063 65.26 851.427 76.496C851.215 86.248 843.159 97.696 839.767 108.932C837.859 115.716 837.859 122.924 835.951 129.708C833.407 139.248 826.835 149 815.811 149.212C815.599 149.212 815.599 149.212 815.599 149.212C804.363 148.788 798.215 139.46 795.459 129.708C793.339 121.228 793.339 113.172 790.159 104.904C786.555 95.152 780.195 85.188 779.983 76.496C779.347 65.26 788.887 52.116 792.067 38.972C793.551 32.4 792.915 25.616 794.611 19.256C797.367 9.07999 804.363 1.024 815.599 0.811987C815.599 0.811987 815.599 0.811987 815.811 0.811987C827.047 1.024 834.043 9.07999 836.799 19.256C838.495 25.616 837.859 32.4 839.343 38.972ZM826.835 125.044C830.227 108.72 836.587 89.216 836.799 75.012C836.799 60.808 830.227 41.516 826.835 24.98C825.563 18.408 823.867 10.352 815.811 9.716H815.599C807.543 10.352 805.847 18.408 804.575 24.98C801.183 41.516 794.611 60.808 794.611 75.012C794.823 89.216 800.971 108.508 804.575 125.044C805.847 131.828 807.543 139.248 815.599 140.308C815.599 140.308 815.599 140.308 815.811 140.308C823.867 139.46 825.563 131.616 826.835 125.044ZM915.531 38.972C918.711 52.116 928.251 65.26 927.615 76.496C927.403 86.248 919.347 97.696 915.955 108.932C914.047 115.716 914.047 122.924 912.139 129.708C909.595 139.248 903.023 149 891.999 149.212C891.787 149.212 891.787 149.212 891.787 149.212C880.551 148.788 874.403 139.46 871.647 129.708C869.527 121.228 869.527 113.172 866.347 104.904C862.743 95.152 856.383 85.188 856.171 76.496C855.535 65.26 865.075 52.116 868.255 38.972C869.739 32.4 869.103 25.616 870.799 19.256C873.555 9.07999 880.551 1.024 891.787 0.811987C891.787 0.811987 891.787 0.811987 891.999 0.811987C903.235 1.024 910.231 9.07999 912.987 19.256C914.683 25.616 914.047 32.4 915.531 38.972ZM903.023 125.044C906.415 108.72 912.775 89.216 912.987 75.012C912.987 60.808 906.415 41.516 903.023 24.98C901.751 18.408 900.055 10.352 891.999 9.716H891.787C883.731 10.352 882.035 18.408 880.763 24.98C877.371 41.516 870.799 60.808 870.799 75.012C871.011 89.216 877.159 108.508 880.763 125.044C882.035 131.828 883.731 139.248 891.787 140.308C891.787 140.308 891.787 140.308 891.999 140.308C900.055 139.46 901.751 131.616 903.023 125.044ZM991.506 114.02C992.778 125.256 998.078 135.22 999.774 146.456C999.774 147.94 998.714 149 997.23 149C990.022 149 986.418 149 979.21 149C977.302 149 976.03 147.304 977.514 145.184C983.874 136.704 980.906 123.56 980.27 114.232C979.634 101.512 984.086 79.04 963.522 79.252C956.314 79.252 953.77 81.584 954.618 86.884C957.374 104.056 957.586 117.836 954.83 135.008C953.77 143.064 960.13 145.184 960.978 146.244C962.038 147.092 960.978 149 959.282 149C958.222 149 955.042 149 953.346 149C952.922 149 952.71 149 952.074 149C947.834 149 945.502 149 941.262 149C940.838 149 940.414 149 939.99 149C938.294 149 935.114 149 934.054 149C932.358 149 931.51 147.092 932.57 146.244C933.63 145.184 940.202 143.276 942.534 135.22C945.502 124.832 948.046 115.928 946.986 105.116C945.926 94.728 940.414 85.612 940.414 75.012C940.414 66.108 944.018 58.052 945.714 49.36C948.47 36.64 946.35 27.312 942.534 15.016C940.202 6.748 933.63 4.62799 932.57 3.77999C931.298 2.71999 932.358 0.811987 934.054 0.811987C935.114 0.811987 938.294 0.811987 939.99 0.811987C940.414 0.811987 940.838 0.811987 941.262 0.811987C945.29 0.811987 947.41 0.811987 951.438 0.811987C952.286 0.811987 952.71 0.811987 953.346 0.811987C956.526 0.811987 963.31 0.59999 968.186 0.811987C987.478 1.44799 993.202 18.408 991.506 35.156C989.598 54.024 987.478 72.68 963.31 73.952C989.81 74.164 991.294 91.972 991.506 114.02ZM954.83 61.868C954.618 64.2 955.89 69.288 962.038 68.652C976.666 67.592 979.634 47.452 980.906 35.58C981.966 26.04 981.118 9.928 968.186 9.50399C959.494 9.29199 955.678 19.256 956.738 26.676C958.01 38.972 956.738 49.784 954.83 61.868ZM1061 112.536C1062.28 112.536 1063.34 113.808 1063.55 115.08C1065.24 125.892 1070.33 135.644 1071.82 146.456C1071.82 147.94 1070.76 149 1069.27 149C1054.64 149 1040.02 149 1025.39 149C1020.51 149 1018.18 149 1013.3 149C1012.88 149 1012.46 149 1012.03 149C1010.34 149 1007.16 149 1006.1 149C1004.4 149 1003.55 147.092 1004.61 146.244C1005.67 145.184 1012.24 143.276 1014.58 135.22C1017.54 124.832 1020.09 115.928 1019.03 105.116C1017.97 94.728 1012.46 85.612 1012.46 75.012C1012.46 66.108 1016.06 58.052 1017.76 49.36C1020.51 36.64 1018.39 27.312 1014.58 15.016C1012.24 6.748 1005.67 4.62799 1004.61 3.77999C1003.34 2.71999 1004.4 0.811987 1006.1 0.811987C1007.16 0.811987 1010.34 0.811987 1012.03 0.811987C1012.46 0.811987 1012.88 0.811987 1013.3 0.811987C1018.18 0.811987 1020.51 0.811987 1025.39 0.811987C1040.02 0.811987 1054.64 0.811987 1069.27 0.811987C1070.76 0.811987 1071.82 1.872 1071.82 3.35599C1070.33 14.168 1065.24 23.92 1063.55 34.732C1063.34 36.216 1062.28 37.276 1061 37.276C1056.55 37.276 1054.64 37.276 1051.04 37.276C1049.13 37.276 1049.98 34.732 1050.83 33.672C1051.89 32.612 1056.13 27.948 1057.4 22.86C1058.88 17.772 1054.86 9.928 1046.8 9.716C1038.74 9.716 1027.08 13.956 1028.36 23.92C1030.9 43 1026.02 60.384 1025.6 79.252C1033.23 72.468 1042.98 67.592 1052.52 65.048C1058.88 63.352 1059.73 58.688 1060.37 57.628C1061 56.78 1063.12 57.628 1063.55 59.324C1063.97 60.172 1064.4 62.08 1064.82 63.564C1065.24 65.26 1065.67 66.532 1065.67 66.532C1066.09 68.44 1066.3 69.288 1066.52 71.196C1066.52 71.196 1066.52 71.408 1066.52 71.832C1066.73 73.316 1066.73 77.132 1066.52 78.404C1066.3 80.1 1064.18 81.16 1063.34 80.1C1062.49 79.04 1059.94 70.348 1052.74 72.468C1042.14 75.648 1031.96 82.22 1027.51 93.032C1029.63 104.056 1030.48 114.656 1028.36 125.892C1027.08 136.068 1038.74 140.308 1046.8 140.096C1054.86 139.884 1058.88 132.04 1057.4 126.952C1056.13 121.864 1051.89 117.2 1050.83 116.14C1049.98 115.08 1049.13 112.536 1051.04 112.536C1054.64 112.536 1056.55 112.536 1061 112.536Z" fill="#BED8FF"/>
</svg>
