
<svg width="360" height="51" viewBox="0 0 360 51" fill="none" xmlns="http://www.w3.org/2000/svg">
<path d="M12.0126 25.221C19.8936 26.144 20.1066 32.392 20.7456 38.498C21.3136 44.178 19.3966 49.787 12.9356 50C11.3026 50.071 9.03056 50 7.96556 50C7.75256 50 7.61056 50 7.32656 50C5.97756 50 5.26756 50 3.91856 50C3.77656 50 3.63456 50 3.49256 50C2.92456 50 1.85956 50 1.50456 50C0.936563 50 0.652563 49.361 1.00756 49.077C1.36256 48.722 3.56356 48.083 4.34456 45.385C5.33856 41.906 6.19056 38.924 5.83556 35.303C5.48056 31.824 3.63456 28.771 3.63456 25.221C3.63456 22.239 4.84156 19.541 5.40956 16.63C6.33256 12.37 5.62256 9.246 4.34456 5.128C3.56356 2.359 1.36256 1.649 1.00756 1.365C0.581563 1.01 0.936563 0.370996 1.50456 0.370996C1.85956 0.370996 2.92456 0.370996 3.49256 0.370996C3.63456 0.370996 3.77656 0.370996 3.91856 0.370996C5.26756 0.370996 5.97756 0.370996 7.32656 0.370996C7.61056 0.370996 7.75256 0.370996 7.96556 0.370996C9.03056 0.370996 11.3026 0.299997 12.9356 0.370996C19.3966 0.583997 21.3136 6.193 20.7456 11.873C20.1066 17.979 19.8936 24.298 12.0126 25.221ZM8.39156 21.245C8.32056 22.026 8.74656 23.73 10.8766 23.517C15.8466 23.162 16.7696 16.062 17.1956 12.015C17.5506 8.82 17.2666 3.424 12.9356 3.282C10.0246 3.211 8.74656 6.548 9.10156 9.033C9.59856 13.293 9.03056 17.056 8.39156 21.245ZM12.9356 47.089C17.2666 47.018 17.5506 41.551 17.1956 38.356C16.7696 34.38 15.8466 27.28 10.8766 26.854C8.74656 26.641 8.32056 28.345 8.39156 29.126C9.03056 33.386 9.59856 37.078 9.10156 41.409C8.74656 43.894 10.0246 47.231 12.9356 47.089ZM41.7327 37.788C42.1587 37.788 42.5137 38.214 42.5847 38.64C43.1527 42.261 44.8567 45.527 45.3537 49.148C45.3537 49.645 44.9987 50 44.5017 50C39.6027 50 34.7037 50 29.8047 50C28.1717 50 27.3907 50 25.7577 50C25.6157 50 25.4737 50 25.3317 50C24.7637 50 23.6987 50 23.3437 50C22.7757 50 22.4917 49.361 22.8467 49.077C23.2017 48.722 25.4027 48.083 26.1837 45.385C27.1777 41.906 28.0297 38.924 27.6747 35.303C27.3197 31.824 25.4737 28.771 25.4737 25.221C25.4737 22.239 26.6807 19.541 27.2487 16.63C28.1717 12.37 27.4617 9.246 26.1837 5.128C25.4027 2.359 23.2017 1.649 22.8467 1.365C22.4207 1.01 22.7757 0.370996 23.3437 0.370996C23.6987 0.370996 24.7637 0.370996 25.3317 0.370996C25.4737 0.370996 25.6157 0.370996 25.7577 0.370996C27.3907 0.370996 28.1717 0.370996 29.8047 0.370996C34.7037 0.370996 39.6027 0.370996 44.5017 0.370996C44.9987 0.370996 45.3537 0.726 45.3537 1.223C44.8567 4.844 43.1527 8.11 42.5847 11.731C42.5137 12.228 42.1587 12.583 41.7327 12.583C40.2417 12.583 39.6027 12.583 38.3957 12.583C37.7567 12.583 38.0407 11.731 38.3247 11.376C38.6797 11.021 40.0997 9.459 40.5257 7.755C41.0227 6.051 39.6737 3.424 36.9757 3.353C34.2777 3.353 30.3727 4.773 30.7987 8.11C31.6507 14.5 30.0177 20.322 29.8757 26.641C32.4317 24.369 35.6977 22.736 38.8927 21.884C41.0227 21.316 41.3067 19.754 41.5197 19.399C41.7327 19.115 42.4427 19.399 42.5847 19.967C42.7267 20.251 42.8687 20.89 43.0107 21.387C43.1527 21.955 43.2947 22.381 43.2947 22.381C43.4367 23.02 43.5077 23.304 43.5787 23.943C43.5787 23.943 43.5787 24.014 43.5787 24.156C43.6497 24.653 43.6497 25.931 43.5787 26.357C43.5077 26.925 42.7977 27.28 42.5137 26.925C42.2297 26.57 41.3777 23.659 38.9637 24.369C35.4137 25.434 32.0057 27.635 30.5147 31.256C31.2247 34.948 31.5087 38.498 30.7987 42.261C30.3727 45.669 34.2777 47.089 36.9757 47.018C39.6737 46.947 41.0227 44.32 40.5257 42.616C40.0997 40.912 38.6797 39.35 38.3247 38.995C38.0407 38.64 37.7567 37.788 38.3957 37.788C39.6027 37.788 40.2417 37.788 41.7327 37.788ZM71.8866 0.370996C72.4546 0.370996 72.7386 1.01 72.3836 1.365C72.0286 1.649 69.8276 2.359 68.9756 5.057C67.4846 10.169 67.2006 13.293 68.3366 18.405C69.1176 21.6 69.9696 23.73 69.6856 27.138C69.4016 30.049 67.6266 32.818 67.4136 35.8C66.9876 40.415 68.9046 44.746 69.8276 49.148C69.8986 49.645 69.4726 50 69.0466 50C68.7626 50 68.6916 50 68.4786 50C67.2006 50 66.6326 50 65.3546 50C64.5026 50 63.7216 50 63.5086 50C63.0826 50 62.3726 49.858 62.6566 49.077C64.2186 43.823 63.2956 37.93 64.2896 32.534C65.4256 26.641 62.5856 21.813 60.5266 16.488C58.7516 11.944 57.3316 7.258 53.0006 4.418C53.9946 8.536 54.7756 11.944 54.1366 16.133C53.6396 19.115 52.5746 21.884 52.5036 24.866C52.4326 28.416 53.8526 31.682 54.3496 35.161C54.7756 38.711 53.9236 41.906 53.1426 45.385C52.5036 48.083 54.6336 48.722 54.9886 49.077C55.2726 49.361 54.9176 50 54.3496 50C53.9946 50 52.9296 50 52.3616 50C52.1486 50 51.9356 50 51.9356 50C51.2966 50 50.9416 50 50.3026 50C50.3026 50 50.1606 50 49.8766 50C49.3086 50 48.2436 50 47.8886 50C47.3206 50 47.0366 49.361 47.3916 49.077C47.7466 48.722 49.9476 48.012 50.7996 45.314C51.7936 41.835 52.6456 38.853 52.2906 35.232C51.8646 31.753 50.0186 28.771 50.0186 25.221C50.0186 22.168 51.2256 19.541 51.8646 16.63C52.7876 12.37 52.0066 9.246 50.7996 5.057C50.7996 5.057 50.7996 5.057 50.7996 5.128C49.9476 2.359 47.7466 1.649 47.3916 1.365C46.9656 1.01 47.3206 0.370996 47.8886 0.370996C48.4566 0.370996 50.3026 0.370996 50.3026 0.370996C59.1776 2.075 61.5916 13.861 64.7866 20.535C63.7926 14.926 63.7216 10.666 64.7866 5.128C65.2836 2.359 63.1536 1.649 62.7986 1.365C62.5146 1.01 62.8696 0.370996 63.3666 0.370996C63.7926 0.370996 64.7866 0.370996 65.4256 0.370996C65.5676 0.370996 65.6386 0.370996 65.8516 0.370996C67.2716 0.370996 67.9816 0.370996 69.4726 0.370996C69.6146 0.370996 69.6856 0.370996 69.8986 0.370996C70.4666 0.370996 71.4606 0.370996 71.8866 0.370996ZM94.1329 0.370996C94.7009 0.370996 94.9849 1.01 94.6299 1.365C94.2749 1.649 92.0739 2.359 91.2219 5.057C88.8789 12.512 90.7959 15.778 91.7899 22.949C92.7129 29.126 89.0919 34.522 89.8729 40.841C91.0089 45.882 88.0269 50.071 82.6309 50.071C82.4889 50.071 82.4179 50 82.2759 50H82.2049C80.3589 50 78.7259 49.574 77.2349 48.438C75.6729 47.302 74.6079 45.811 73.9689 44.32C73.2589 42.9 72.5489 41.196 71.9809 39.137C71.8389 38.64 72.1229 38.143 72.5489 38.072C74.1819 37.575 74.9629 37.291 76.4539 36.794C76.7379 36.723 77.0219 37.007 77.0929 37.362C77.0929 39.35 77.1639 41.054 77.3769 42.474C77.8029 45.101 79.5779 47.728 82.4889 47.657C86.2519 47.586 86.6069 43.681 85.8259 40.841C85.2579 34.664 88.0979 29.055 87.3879 22.949C86.6069 16.133 85.1869 12.086 86.8909 5.128C87.6009 2.359 85.3999 1.649 85.0449 1.365C84.7609 1.01 85.1159 0.370996 85.6839 0.370996C86.0389 0.370996 87.0329 0.370996 87.6719 0.370996C87.8139 0.370996 87.8849 0.370996 88.0979 0.370996C89.5179 0.370996 90.2279 0.370996 91.7189 0.370996C91.8609 0.370996 91.9319 0.370996 92.1449 0.370996C92.7129 0.370996 93.7779 0.370996 94.1329 0.370996ZM122.815 49.077C123.17 49.361 122.886 50.071 122.318 50.071C121.963 50.071 120.969 50.071 120.401 50.071C120.188 50.071 120.117 50.071 119.904 50.071C118.342 50.071 117.632 50.071 116.141 50.071C115.999 50.071 115.999 50.071 115.928 50.071C115.289 50.071 113.301 50.071 112.804 50.071C112.307 50.071 111.881 49.361 112.236 49.077C112.52 48.722 114.721 48.083 114.224 45.385C112.307 40.628 111.384 36.51 111.1 31.469C104.852 33.244 102.367 39.776 99.6687 45.101C99.6687 45.172 99.5977 45.243 99.5977 45.314C98.3197 48.012 100.379 48.722 100.734 49.077C101.018 49.361 100.663 50.071 100.095 50.071C99.5267 50.071 97.8227 50.071 97.6807 50.071C96.7577 50.071 96.3317 50.071 95.4087 50.071C95.4087 50.071 95.2667 50.071 95.1247 50.071C94.6277 50.071 93.4207 50.071 92.9947 50.071C92.4267 50.071 92.0717 49.361 92.4977 49.077C92.8527 48.722 95.8347 47.941 97.1837 45.314C100.734 38.214 99.6687 33.244 101.16 25.86C102.509 19.186 105.136 13.222 106.13 6.335C105.988 5.838 105.917 5.625 105.775 5.128C105.065 2.43 102.012 1.649 101.657 1.365C101.302 1.01 101.586 0.370996 102.154 0.370996C102.651 0.370996 104.142 0.370996 104.497 0.370996C104.568 0.370996 104.568 0.370996 104.568 0.370996C106.272 0.370996 107.124 0.370996 108.757 0.370996C108.757 0.370996 108.828 0.370996 108.97 0.370996C109.609 0.370996 111.313 0.370996 111.739 0.370996C112.307 0.370996 112.591 1.01 112.236 1.365C111.881 1.649 110.035 2.288 109.822 5.128C110.816 13.222 114.224 20.677 115.076 28.7C115.076 28.7 115.076 28.7 115.076 28.771C115.076 35.303 115.431 39.35 118.484 45.385C119.833 48.296 122.46 48.722 122.815 49.077ZM102.864 33.954C104.923 31.54 107.763 29.907 110.887 29.197C109.964 23.304 108.26 17.624 107.266 11.731C105.775 19.257 103.29 26.215 102.864 33.954ZM163.358 0.370996C163.926 0.370996 164.21 1.01 163.855 1.365C163.5 1.649 161.441 2.288 160.518 4.844C158.956 9.885 158.317 13.222 159.737 18.263C160.66 21.458 161.512 23.73 161.157 26.996C160.873 30.049 159.098 32.747 158.814 35.729C158.317 40.415 160.305 44.675 161.299 49.148C161.37 49.574 161.086 49.929 160.66 50C160.589 50 160.589 50 160.518 50C160.305 50 160.163 50 159.95 50C159.737 50 159.595 50 159.382 50C158.53 50 158.104 50 157.323 50C157.11 50 157.039 50 156.897 50C155.974 50 155.193 50 154.98 50H154.909C154.838 50 154.838 50 154.838 50C154.767 50 154.696 50 154.625 50C154.27 49.929 153.915 49.645 154.057 49.077C155.406 43.681 153.986 38.001 155.406 32.534C157.039 26.144 155.974 22.026 154.909 15.636C154.27 11.873 155.122 8.678 156.045 5.128C156.045 5.057 156.045 5.057 156.045 5.057C156.116 4.773 156.187 4.631 156.258 4.418C148.235 9.459 143.904 23.588 143.833 32.534C143.833 33.102 143.833 33.67 143.833 34.167C143.975 39.137 144.188 44.178 144.33 49.148C144.401 49.645 143.975 50 143.478 50C141.845 50 141.064 50 139.431 50C139.005 50 138.295 49.858 138.65 49.077C140.425 44.675 141.49 40.06 141.632 35.445C141.703 35.019 141.632 34.522 141.632 34.096C141.632 33.599 141.632 33.102 141.632 32.534C141.064 23.304 137.372 9.53 128.994 4.418C130.201 8.536 131.124 11.873 130.343 16.133C129.775 19.115 128.497 21.813 128.426 24.866C128.355 28.487 130.059 31.611 130.556 35.161C131.124 38.782 130.13 41.906 129.136 45.385C128.426 48.083 130.627 48.722 130.911 49.077C131.195 49.361 130.84 50 130.272 50C129.917 50 128.852 50 128.284 50C128.071 50 127.858 50 127.858 50C127.219 50 126.864 50 126.225 50C126.225 50 126.083 50 125.799 50C125.231 50 124.166 50 123.811 50C123.243 50 122.959 49.361 123.314 49.077C123.669 48.722 125.87 48.012 126.722 45.314C127.787 41.835 128.71 38.853 128.284 35.232C127.858 31.753 125.941 28.771 125.941 25.221C125.941 22.168 127.219 19.541 127.858 16.63C128.852 12.299 128 9.246 126.722 5.057C126.722 5.057 126.722 5.057 126.722 5.128C125.87 2.359 123.669 1.649 123.314 1.365C122.888 1.01 123.243 0.370996 123.811 0.370996C124.379 0.370996 126.225 0.370996 126.225 0.370996C136.946 2.643 140.212 15.991 142.555 24.724C145.111 16.275 148.448 2.572 158.956 0.370996C158.956 0.370996 159.169 0.370996 159.453 0.370996C160.021 0.370996 160.305 0.370996 160.873 0.370996C161.086 0.370996 161.157 0.370996 161.37 0.370996C161.938 0.370996 162.932 0.370996 163.287 0.370996H163.358ZM174.848 49.077C175.132 49.361 174.777 50 174.209 50C173.854 50 172.789 50 172.221 50C172.079 50 172.008 50 171.795 50C170.375 50 169.594 50 168.174 50C168.032 50 167.89 50 167.748 50C167.18 50 166.115 50 165.76 50C165.192 50 164.908 49.361 165.263 49.077C165.618 48.722 167.748 48.083 168.671 45.385C169.807 41.906 170.801 38.924 170.304 35.303C169.949 31.824 167.819 28.842 167.819 25.221C167.819 22.168 169.239 19.612 169.878 16.63C170.872 12.299 170.091 9.317 168.671 5.128C167.748 2.359 165.618 1.649 165.263 1.365C164.908 1.01 165.192 0.370996 165.76 0.370996C166.115 0.370996 167.18 0.370996 167.748 0.370996C167.89 0.370996 168.032 0.370996 168.174 0.370996C169.594 0.370996 170.375 0.370996 171.795 0.370996C172.008 0.370996 172.079 0.370996 172.221 0.370996C172.789 0.370996 173.854 0.370996 174.209 0.370996C174.777 0.370996 175.132 1.01 174.848 1.365C174.493 1.649 172.292 2.359 173.144 5.057C174.564 9.246 175.416 12.228 174.422 16.63C173.712 19.541 172.363 22.097 172.363 25.15C172.363 28.771 174.351 31.753 174.848 35.232C175.274 38.924 174.28 41.835 173.144 45.314C172.292 48.012 174.493 48.722 174.848 49.077ZM202.169 0.370996C202.737 0.370996 203.021 1.01 202.666 1.365C202.311 1.649 200.11 2.359 199.258 5.057C197.767 10.169 197.483 13.293 198.619 18.405C199.4 21.6 200.252 23.73 199.968 27.138C199.684 30.049 197.909 32.818 197.696 35.8C197.27 40.415 199.187 44.746 200.11 49.148C200.181 49.645 199.755 50 199.329 50C199.045 50 198.974 50 198.761 50C197.483 50 196.915 50 195.637 50C194.785 50 194.004 50 193.791 50C193.365 50 192.655 49.858 192.939 49.077C194.501 43.823 193.578 37.93 194.572 32.534C195.708 26.641 192.868 21.813 190.809 16.488C189.034 11.944 187.614 7.258 183.283 4.418C184.277 8.536 185.058 11.944 184.419 16.133C183.922 19.115 182.857 21.884 182.786 24.866C182.715 28.416 184.135 31.682 184.632 35.161C185.058 38.711 184.206 41.906 183.425 45.385C182.786 48.083 184.916 48.722 185.271 49.077C185.555 49.361 185.2 50 184.632 50C184.277 50 183.212 50 182.644 50C182.431 50 182.218 50 182.218 50C181.579 50 181.224 50 180.585 50C180.585 50 180.443 50 180.159 50C179.591 50 178.526 50 178.171 50C177.603 50 177.319 49.361 177.674 49.077C178.029 48.722 180.23 48.012 181.082 45.314C182.076 41.835 182.928 38.853 182.573 35.232C182.147 31.753 180.301 28.771 180.301 25.221C180.301 22.168 181.508 19.541 182.147 16.63C183.07 12.37 182.289 9.246 181.082 5.057C181.082 5.057 181.082 5.057 181.082 5.128C180.23 2.359 178.029 1.649 177.674 1.365C177.248 1.01 177.603 0.370996 178.171 0.370996C178.739 0.370996 180.585 0.370996 180.585 0.370996C189.46 2.075 191.874 13.861 195.069 20.535C194.075 14.926 194.004 10.666 195.069 5.128C195.566 2.359 193.436 1.649 193.081 1.365C192.797 1.01 193.152 0.370996 193.649 0.370996C194.075 0.370996 195.069 0.370996 195.708 0.370996C195.85 0.370996 195.921 0.370996 196.134 0.370996C197.554 0.370996 198.264 0.370996 199.755 0.370996C199.897 0.370996 199.968 0.370996 200.181 0.370996C200.749 0.370996 201.743 0.370996 202.169 0.370996ZM259.805 0.370996C260.373 0.370996 260.657 1.01 260.302 1.365C259.947 1.649 257.888 2.288 256.965 4.844C255.403 9.885 254.764 13.222 256.184 18.263C257.107 21.458 257.959 23.73 257.604 26.996C257.32 30.049 255.545 32.747 255.261 35.729C254.764 40.415 256.752 44.675 257.746 49.148C257.817 49.574 257.533 49.929 257.107 50C257.036 50 257.036 50 256.965 50C256.752 50 256.61 50 256.397 50C256.184 50 256.042 50 255.829 50C254.977 50 254.551 50 253.77 50C253.557 50 253.486 50 253.344 50C252.421 50 251.64 50 251.427 50H251.356C251.285 50 251.285 50 251.285 50C251.214 50 251.143 50 251.072 50C250.717 49.929 250.362 49.645 250.504 49.077C251.853 43.681 250.433 38.001 251.853 32.534C253.486 26.144 252.421 22.026 251.356 15.636C250.717 11.873 251.569 8.678 252.492 5.128C252.492 5.057 252.492 5.057 252.492 5.057C252.563 4.773 252.634 4.631 252.705 4.418C244.682 9.459 240.351 23.588 240.28 32.534C240.28 33.102 240.28 33.67 240.28 34.167C240.422 39.137 240.635 44.178 240.777 49.148C240.848 49.645 240.422 50 239.925 50C238.292 50 237.511 50 235.878 50C235.452 50 234.742 49.858 235.097 49.077C236.872 44.675 237.937 40.06 238.079 35.445C238.15 35.019 238.079 34.522 238.079 34.096C238.079 33.599 238.079 33.102 238.079 32.534C237.511 23.304 233.819 9.53 225.441 4.418C226.648 8.536 227.571 11.873 226.79 16.133C226.222 19.115 224.944 21.813 224.873 24.866C224.802 28.487 226.506 31.611 227.003 35.161C227.571 38.782 226.577 41.906 225.583 45.385C224.873 48.083 227.074 48.722 227.358 49.077C227.642 49.361 227.287 50 226.719 50C226.364 50 225.299 50 224.731 50C224.518 50 224.305 50 224.305 50C223.666 50 223.311 50 222.672 50C222.672 50 222.53 50 222.246 50C221.678 50 220.613 50 220.258 50C219.69 50 219.406 49.361 219.761 49.077C220.116 48.722 222.317 48.012 223.169 45.314C224.234 41.835 225.157 38.853 224.731 35.232C224.305 31.753 222.388 28.771 222.388 25.221C222.388 22.168 223.666 19.541 224.305 16.63C225.299 12.299 224.447 9.246 223.169 5.057C223.169 5.057 223.169 5.057 223.169 5.128C222.317 2.359 220.116 1.649 219.761 1.365C219.335 1.01 219.69 0.370996 220.258 0.370996C220.826 0.370996 222.672 0.370996 222.672 0.370996C233.393 2.643 236.659 15.991 239.002 24.724C241.558 16.275 244.895 2.572 255.403 0.370996C255.403 0.370996 255.616 0.370996 255.9 0.370996C256.468 0.370996 256.752 0.370996 257.32 0.370996C257.533 0.370996 257.604 0.370996 257.817 0.370996C258.385 0.370996 259.379 0.370996 259.734 0.370996H259.805ZM281.589 13.151C282.654 17.553 285.849 21.955 285.636 25.718C285.565 28.984 282.867 32.818 281.731 36.581C281.092 38.853 281.092 41.267 280.453 43.539C279.601 46.734 277.4 50 273.708 50.071C273.637 50.071 273.637 50.071 273.637 50.071C269.874 49.929 267.815 46.805 266.892 43.539C266.182 40.699 266.182 38.001 265.117 35.232C263.91 31.966 261.78 28.629 261.709 25.718C261.496 21.955 264.691 17.553 265.756 13.151C266.253 10.95 266.04 8.678 266.608 6.548C267.531 3.14 269.874 0.441999 273.637 0.370996C273.637 0.370996 273.637 0.370996 273.708 0.370996C277.471 0.441999 279.814 3.14 280.737 6.548C281.305 8.678 281.092 10.95 281.589 13.151ZM277.4 41.977C278.536 36.51 280.666 29.978 280.737 25.221C280.737 20.464 278.536 14.003 277.4 8.465C276.974 6.264 276.406 3.566 273.708 3.353H273.637C270.939 3.566 270.371 6.264 269.945 8.465C268.809 14.003 266.608 20.464 266.608 25.221C266.679 29.978 268.738 36.439 269.945 41.977C270.371 44.249 270.939 46.734 273.637 47.089C273.637 47.089 273.637 47.089 273.708 47.089C276.406 46.805 276.974 44.178 277.4 41.977ZM307.105 13.151C308.17 17.553 311.365 21.955 311.152 25.718C311.081 28.984 308.383 32.818 307.247 36.581C306.608 38.853 306.608 41.267 305.969 43.539C305.117 46.734 302.916 50 299.224 50.071C299.153 50.071 299.153 50.071 299.153 50.071C295.39 49.929 293.331 46.805 292.408 43.539C291.698 40.699 291.698 38.001 290.633 35.232C289.426 31.966 287.296 28.629 287.225 25.718C287.012 21.955 290.207 17.553 291.272 13.151C291.769 10.95 291.556 8.678 292.124 6.548C293.047 3.14 295.39 0.441999 299.153 0.370996C299.153 0.370996 299.153 0.370996 299.224 0.370996C302.987 0.441999 305.33 3.14 306.253 6.548C306.821 8.678 306.608 10.95 307.105 13.151ZM302.916 41.977C304.052 36.51 306.182 29.978 306.253 25.221C306.253 20.464 304.052 14.003 302.916 8.465C302.49 6.264 301.922 3.566 299.224 3.353H299.153C296.455 3.566 295.887 6.264 295.461 8.465C294.325 14.003 292.124 20.464 292.124 25.221C292.195 29.978 294.254 36.439 295.461 41.977C295.887 44.249 296.455 46.734 299.153 47.089C299.153 47.089 299.153 47.089 299.224 47.089C301.922 46.805 302.49 44.178 302.916 41.977ZM332.549 38.285C332.975 42.048 334.75 45.385 335.318 49.148C335.318 49.645 334.963 50 334.466 50C332.052 50 330.845 50 328.431 50C327.792 50 327.366 49.432 327.863 48.722C329.993 45.882 328.999 41.48 328.786 38.356C328.573 34.096 330.064 26.57 323.177 26.641C320.763 26.641 319.911 27.422 320.195 29.197C321.118 34.948 321.189 39.563 320.266 45.314C319.911 48.012 322.041 48.722 322.325 49.077C322.68 49.361 322.325 50 321.757 50C321.402 50 320.337 50 319.769 50C319.627 50 319.556 50 319.343 50C317.923 50 317.142 50 315.722 50C315.58 50 315.438 50 315.296 50C314.728 50 313.663 50 313.308 50C312.74 50 312.456 49.361 312.811 49.077C313.166 48.722 315.367 48.083 316.148 45.385C317.142 41.906 317.994 38.924 317.639 35.303C317.284 31.824 315.438 28.771 315.438 25.221C315.438 22.239 316.645 19.541 317.213 16.63C318.136 12.37 317.426 9.246 316.148 5.128C315.367 2.359 313.166 1.649 312.811 1.365C312.385 1.01 312.74 0.370996 313.308 0.370996C313.663 0.370996 314.728 0.370996 315.296 0.370996C315.438 0.370996 315.58 0.370996 315.722 0.370996C317.071 0.370996 317.781 0.370996 319.13 0.370996C319.414 0.370996 319.556 0.370996 319.769 0.370996C320.834 0.370996 323.106 0.299997 324.739 0.370996C331.2 0.583997 333.117 6.264 332.549 11.873C331.91 18.192 331.2 24.44 323.106 24.866C331.981 24.937 332.478 30.901 332.549 38.285ZM320.266 20.819C320.195 21.6 320.621 23.304 322.68 23.091C327.579 22.736 328.573 15.991 328.999 12.015C329.354 8.82 329.07 3.424 324.739 3.282C321.828 3.211 320.55 6.548 320.905 9.033C321.331 13.151 320.905 16.772 320.266 20.819ZM355.825 37.788C356.251 37.788 356.606 38.214 356.677 38.64C357.245 42.261 358.949 45.527 359.446 49.148C359.446 49.645 359.091 50 358.594 50C353.695 50 348.796 50 343.897 50C342.264 50 341.483 50 339.85 50C339.708 50 339.566 50 339.424 50C338.856 50 337.791 50 337.436 50C336.868 50 336.584 49.361 336.939 49.077C337.294 48.722 339.495 48.083 340.276 45.385C341.27 41.906 342.122 38.924 341.767 35.303C341.412 31.824 339.566 28.771 339.566 25.221C339.566 22.239 340.773 19.541 341.341 16.63C342.264 12.37 341.554 9.246 340.276 5.128C339.495 2.359 337.294 1.649 336.939 1.365C336.513 1.01 336.868 0.370996 337.436 0.370996C337.791 0.370996 338.856 0.370996 339.424 0.370996C339.566 0.370996 339.708 0.370996 339.85 0.370996C341.483 0.370996 342.264 0.370996 343.897 0.370996C348.796 0.370996 353.695 0.370996 358.594 0.370996C359.091 0.370996 359.446 0.726 359.446 1.223C358.949 4.844 357.245 8.11 356.677 11.731C356.606 12.228 356.251 12.583 355.825 12.583C354.334 12.583 353.695 12.583 352.488 12.583C351.849 12.583 352.133 11.731 352.417 11.376C352.772 11.021 354.192 9.459 354.618 7.755C355.115 6.051 353.766 3.424 351.068 3.353C348.37 3.353 344.465 4.773 344.891 8.11C345.743 14.5 344.11 20.322 343.968 26.641C346.524 24.369 349.79 22.736 352.985 21.884C355.115 21.316 355.399 19.754 355.612 19.399C355.825 19.115 356.535 19.399 356.677 19.967C356.819 20.251 356.961 20.89 357.103 21.387C357.245 21.955 357.387 22.381 357.387 22.381C357.529 23.02 357.6 23.304 357.671 23.943C357.671 23.943 357.671 24.014 357.671 24.156C357.742 24.653 357.742 25.931 357.671 26.357C357.6 26.925 356.89 27.28 356.606 26.925C356.322 26.57 355.47 23.659 353.056 24.369C349.506 25.434 346.098 27.635 344.607 31.256C345.317 34.948 345.601 38.498 344.891 42.261C344.465 45.669 348.37 47.089 351.068 47.018C353.766 46.947 355.115 44.32 354.618 42.616C354.192 40.912 352.772 39.35 352.417 38.995C352.133 38.64 351.849 37.788 352.488 37.788C353.695 37.788 354.334 37.788 355.825 37.788Z" fill="#CBB6FF" fill-opacity="0.6"/>
</svg>
