<svg width="1034" height="145" viewBox="0 0 1034 145" fill="none" xmlns="http://www.w3.org/2000/svg">
<path d="M58.7449 42.32C62.4349 61.385 52.5949 82.295 30.8649 82.91C27.5849 82.91 24.9199 82.91 22.8699 82.91C27.1749 100.335 28.6099 113.045 23.4849 130.47C21.6399 138.26 27.9949 140.31 29.0199 141.335C29.8399 142.155 28.8149 144 27.1749 144C26.1499 144 23.0749 144 21.4349 144C21.0249 144 20.8199 144 20.2049 144C16.1049 144 13.8499 144 9.74992 144C9.33992 144 8.92992 144 8.51992 144C6.87992 144 3.80492 144 2.77992 144C1.13992 144 0.319922 142.155 1.34492 141.335C2.36992 140.31 8.51992 138.465 10.9799 130.675C14.2599 120.63 16.9249 112.02 15.6949 101.565C14.4649 91.52 8.92992 82.91 8.92992 72.455C8.72492 63.845 12.4149 56.055 14.0549 47.65C16.7199 35.35 14.6699 26.33 10.9799 14.44C8.72492 6.445 2.36992 4.39499 1.34492 3.57499C0.114922 2.54999 1.13992 0.704988 2.77992 0.704988C3.80492 0.704988 6.87992 0.704988 8.51992 0.704988C8.92992 0.704988 9.33992 0.704988 9.74992 0.704988C13.6449 0.704988 15.6949 0.704988 19.5899 0.704988C20.4099 0.704988 20.8199 0.704988 21.4349 0.704988C24.5099 0.704988 31.0699 0.704988 35.7849 0.704988C58.9499 0.909997 55.8749 27.355 58.7449 42.32ZM29.6349 74.71C43.7799 73.48 50.7499 55.85 48.6999 42.525C47.0599 33.095 48.0849 10.34 35.7849 9.10999C27.9949 8.28999 23.6899 18.54 24.7149 25.715C26.3549 40.27 23.6899 53.595 21.8449 67.945C21.6399 70.2 23.4849 75.12 29.6349 74.71ZM134.834 141.335C135.859 142.155 135.039 144.205 133.399 144.205C132.374 144.205 129.504 144.205 127.864 144.205C127.249 144.205 127.044 144.205 126.429 144.205C121.919 144.205 119.869 144.205 115.564 144.205C115.154 144.205 115.154 144.205 114.949 144.205C113.104 144.205 107.364 144.205 105.929 144.205C104.494 144.205 103.264 142.155 104.289 141.335C105.109 140.31 111.464 138.465 110.029 130.675C104.494 116.94 101.829 105.05 101.009 90.495C82.9686 95.62 75.7936 114.48 68.0036 129.855C68.0036 130.06 67.7986 130.265 67.7986 130.47C64.1086 138.26 70.0536 140.31 71.0786 141.335C71.8986 142.155 70.8736 144.205 69.2336 144.205C67.5936 144.205 62.6736 144.205 62.2636 144.205C59.5986 144.205 58.3686 144.205 55.7036 144.205C55.7036 144.205 55.2936 144.205 54.8836 144.205C53.4486 144.205 49.9636 144.205 48.7336 144.205C47.0936 144.205 46.0686 142.155 47.2986 141.335C48.3236 140.31 56.9336 138.055 60.8286 130.47C71.0786 109.97 68.0036 95.62 72.3086 74.3C76.2036 55.03 83.7886 37.81 86.6586 17.925C86.2486 16.49 86.0436 15.875 85.6336 14.44C83.5836 6.65 74.7686 4.39499 73.7436 3.57499C72.7186 2.54999 73.5386 0.704988 75.1786 0.704988C76.6136 0.704988 80.9186 0.704988 81.9436 0.704988C82.1486 0.704988 82.1486 0.704988 82.1486 0.704988C87.0686 0.704988 89.5286 0.704988 94.2436 0.704988C94.2436 0.704988 94.4486 0.704988 94.8586 0.704988C96.7036 0.704988 101.624 0.704988 102.854 0.704988C104.494 0.704988 105.314 2.54999 104.289 3.57499C103.264 4.39499 97.9336 6.23999 97.3186 14.44C100.189 37.81 110.029 59.335 112.489 82.5C112.489 82.5 112.489 82.5 112.489 82.705C112.489 101.565 113.514 113.25 122.329 130.675C126.224 139.08 133.809 140.31 134.834 141.335ZM77.2286 97.67C83.1736 90.7 91.3736 85.985 100.394 83.935C97.7286 66.92 92.8086 50.52 89.9386 33.505C85.6336 55.235 78.4586 75.325 77.2286 97.67ZM163.952 141.335C164.772 142.155 163.747 144 162.107 144C161.082 144 158.007 144 156.367 144C155.957 144 155.752 144 155.137 144C151.037 144 148.782 144 144.682 144C144.272 144 143.862 144 143.452 144C141.812 144 138.737 144 137.712 144C136.072 144 135.252 142.155 136.277 141.335C137.302 140.31 143.452 138.465 146.117 130.675C149.397 120.63 152.267 112.02 150.832 101.565C149.807 91.52 143.657 82.91 143.657 72.455C143.657 63.64 147.757 56.26 149.602 47.65C152.472 35.145 150.217 26.535 146.117 14.44C143.452 6.445 137.302 4.39499 136.277 3.57499C135.252 2.54999 136.072 0.704988 137.712 0.704988C138.737 0.704988 141.812 0.704988 143.452 0.704988C143.862 0.704988 144.272 0.704988 144.682 0.704988C148.782 0.704988 151.037 0.704988 155.137 0.704988C155.752 0.704988 155.957 0.704988 156.367 0.704988C158.007 0.704988 161.082 0.704988 162.107 0.704988C163.747 0.704988 164.772 2.54999 163.952 3.57499C162.927 4.39499 156.572 6.445 159.032 14.235C163.132 26.33 165.592 34.94 162.722 47.65C160.672 56.055 156.777 63.435 156.777 72.25C156.777 82.705 162.517 91.315 163.952 101.36C165.182 112.02 162.312 120.425 159.032 130.47C156.572 138.26 162.927 140.31 163.952 141.335ZM242.837 0.704988C244.477 0.704988 245.297 2.54999 244.272 3.57499C243.247 4.39499 236.892 6.445 234.432 14.235C230.127 28.995 229.307 38.015 232.587 52.775C234.842 62 237.302 68.15 236.482 77.99C235.662 86.395 230.537 94.39 229.922 103C228.692 116.325 234.227 128.83 236.892 141.54C237.097 142.975 235.867 144 234.637 144C233.817 144 233.612 144 232.997 144C229.307 144 227.667 144 223.977 144C221.517 144 219.262 144 218.647 144C217.417 144 215.367 143.59 216.187 141.335C220.697 126.165 218.032 109.15 220.902 93.57C224.182 76.555 215.982 62.615 210.037 47.24C204.912 34.12 200.812 20.59 188.307 12.39C191.177 24.28 193.432 34.12 191.587 46.215C190.152 54.825 187.077 62.82 186.872 71.43C186.667 81.68 190.767 91.11 192.202 101.155C193.432 111.405 190.972 120.63 188.717 130.675C186.872 138.465 193.022 140.31 194.047 141.335C194.867 142.155 193.842 144 192.202 144C191.177 144 188.102 144 186.462 144C185.847 144 185.232 144 185.232 144C183.387 144 182.362 144 180.517 144C180.517 144 180.107 144 179.287 144C177.647 144 174.572 144 173.547 144C171.907 144 171.087 142.155 172.112 141.335C173.137 140.31 179.492 138.26 181.952 130.47C184.822 120.425 187.282 111.815 186.257 101.36C185.027 91.315 179.697 82.705 179.697 72.455C179.697 63.64 183.182 56.055 185.027 47.65C187.692 35.35 185.437 26.33 181.952 14.235C181.952 14.235 181.952 14.235 181.952 14.44C179.492 6.445 173.137 4.39499 172.112 3.57499C170.882 2.54999 171.907 0.704988 173.547 0.704988C175.187 0.704988 180.517 0.704988 180.517 0.704988C206.142 5.625 213.112 39.655 222.337 58.925C219.467 42.73 219.262 30.43 222.337 14.44C223.772 6.445 217.622 4.39499 216.597 3.57499C215.777 2.54999 216.802 0.704988 218.237 0.704988C219.467 0.704988 222.337 0.704988 224.182 0.704988C224.592 0.704988 224.797 0.704988 225.412 0.704988C229.512 0.704988 231.562 0.704988 235.867 0.704988C236.277 0.704988 236.482 0.704988 237.097 0.704988C238.737 0.704988 241.607 0.704988 242.837 0.704988ZM310.706 0.704988C312.141 0.704988 313.166 1.73 313.166 3.16499C311.731 13.62 306.811 23.05 305.171 33.505C304.966 34.94 303.941 35.965 302.506 35.965C298.406 35.965 296.561 35.965 293.076 35.965C291.026 35.965 291.846 33.505 292.666 32.48C293.691 31.455 297.791 26.945 299.226 22.025C300.661 17.105 296.971 9.315 288.771 9.315C287.541 9.315 286.311 9.52 285.286 9.52C281.801 50.11 291.641 90.495 286.516 130.675C285.696 138.26 292.051 140.31 293.076 141.335C293.896 142.155 293.076 144 291.436 144C290.206 144 287.336 144 285.696 144C285.081 144 284.876 144 284.466 144C280.161 144 278.111 144 274.011 144C273.396 144 273.191 144 272.781 144C270.936 144 268.066 144 266.836 144C265.401 144 264.376 142.155 265.401 141.335C266.631 140.31 272.781 138.26 274.421 130.47C279.136 108.125 272.986 91.93 272.781 69.995C272.781 49.495 274.831 30.225 273.191 9.52C271.961 9.52 270.731 9.315 269.501 9.315C261.506 9.315 257.816 17.105 259.046 22.025C260.481 26.945 264.581 31.455 265.606 32.48C266.426 33.505 267.246 35.965 265.401 35.965C261.916 35.965 260.071 35.965 255.766 35.965C254.536 35.965 253.306 34.94 253.101 33.505C251.461 23.05 246.746 13.62 245.311 3.16499C245.106 1.73 246.131 0.704988 247.566 0.704988C255.971 0.704988 264.376 0.704988 272.781 0.704988C274.011 0.704988 274.626 0.704988 275.856 0.704988C278.521 0.704988 279.751 0.704988 282.621 0.704988C283.851 0.704988 284.466 0.704988 285.696 0.704988C294.101 0.704988 302.301 0.704988 310.706 0.704988ZM437.585 141.335C438.815 142.155 437.79 144 436.15 144C435.125 144 432.05 144 430.41 144C430 144 429.59 144 429.18 144C425.08 144 422.825 144 418.725 144C418.315 144 417.905 144 417.495 144C415.855 144 412.78 144 411.755 144C410.115 144 409.09 142.155 409.91 141.335C410.935 140.31 417.085 138.465 415.65 130.675C410.525 104.64 419.545 81.27 415.035 55.44C398.43 60.155 383.465 75.12 383.465 92.955C385.72 106.485 384.695 116.94 382.03 130.47C380.595 138.26 386.745 140.31 387.77 141.335C388.59 142.155 387.565 144 385.925 144C384.9 144 381.825 144 380.185 144C379.775 144 379.57 144 378.955 144C374.855 144 372.6 144 368.5 144C368.09 144 367.68 144 367.27 144C365.63 144 362.555 144 361.53 144C359.89 144 359.07 142.155 360.095 141.335C361.12 140.31 367.475 138.465 369.73 130.675C372.805 120.63 375.47 112.02 374.24 101.565C373.215 91.52 367.68 82.705 367.68 72.455C367.68 63.845 371.165 56.055 373.01 47.65C375.675 35.35 373.42 26.33 369.935 14.44C367.475 6.445 361.12 4.39499 360.095 3.57499C358.865 2.54999 359.89 0.704988 361.53 0.704988C362.555 0.704988 365.63 0.704988 367.27 0.704988C367.68 0.704988 368.09 0.704988 368.5 0.704988C372.6 0.704988 374.855 0.704988 378.955 0.704988C379.57 0.704988 379.775 0.704988 380.185 0.704988C381.825 0.704988 384.9 0.704988 385.925 0.704988C387.565 0.704988 388.59 2.54999 387.77 3.57499C386.745 4.39499 380.595 6.445 382.03 14.235C386.13 34.53 383.465 49.7 380.39 69.79C389.41 60.975 401.095 51.75 413.6 48.675C411.755 36.375 413.19 26.535 415.65 14.44C417.085 6.445 410.935 4.39499 409.91 3.57499C409.09 2.54999 410.115 0.704988 411.755 0.704988C412.78 0.704988 415.855 0.704988 417.495 0.704988C417.905 0.704988 418.11 0.704988 418.725 0.704988C422.825 0.704988 425.08 0.704988 429.18 0.704988C429.59 0.704988 430 0.704988 430.41 0.704988C432.05 0.704988 435.125 0.704988 436.15 0.704988C437.79 0.704988 438.815 2.54999 437.585 3.57499C436.56 4.39499 430.205 6.445 427.95 14.235C424.26 26.33 422.005 35.145 424.67 47.65C426.31 56.055 430 63.64 430 72.25C430 82.705 424.67 91.315 423.44 101.36C422.415 111.815 424.875 120.425 427.95 130.47C430.205 138.26 436.56 140.31 437.585 141.335ZM496.705 108.74C497.935 108.74 498.96 109.97 499.165 111.2C500.805 121.655 505.725 131.085 507.16 141.54C507.16 142.975 506.135 144 504.7 144C490.555 144 476.41 144 462.265 144C457.55 144 455.295 144 450.58 144C450.17 144 449.76 144 449.35 144C447.71 144 444.635 144 443.61 144C441.97 144 441.15 142.155 442.175 141.335C443.2 140.31 449.555 138.465 451.81 130.675C454.68 120.63 457.14 112.02 456.115 101.565C455.09 91.52 449.76 82.705 449.76 72.455C449.76 63.845 453.245 56.055 454.885 47.65C457.55 35.35 455.5 26.33 451.81 14.44C449.555 6.445 443.2 4.39499 442.175 3.57499C440.945 2.54999 441.97 0.704988 443.61 0.704988C444.635 0.704988 447.71 0.704988 449.35 0.704988C449.76 0.704988 450.17 0.704988 450.58 0.704988C455.295 0.704988 457.55 0.704988 462.265 0.704988C476.41 0.704988 490.555 0.704988 504.7 0.704988C506.135 0.704988 507.16 1.73 507.16 3.16499C505.725 13.62 500.805 23.05 499.165 33.505C498.96 34.94 497.935 35.965 496.705 35.965C492.4 35.965 490.555 35.965 487.07 35.965C485.225 35.965 486.045 33.505 486.865 32.48C487.89 31.455 491.99 26.945 493.22 22.025C494.655 17.105 490.76 9.52 482.97 9.315C475.18 9.315 463.905 13.415 465.135 23.05C467.595 41.5 462.88 58.31 462.47 76.555C469.85 69.995 479.28 65.28 488.505 62.82C494.655 61.18 495.475 56.67 496.09 55.645C496.705 54.825 498.755 55.645 499.165 57.285C499.575 58.105 499.985 59.95 500.395 61.385C500.805 63.025 501.215 64.255 501.215 64.255C501.625 66.1 501.83 66.92 502.035 68.765C502.035 68.765 502.035 68.97 502.035 69.38C502.24 70.815 502.24 74.505 502.035 75.735C501.83 77.375 499.78 78.4 498.96 77.375C498.14 76.35 495.68 67.945 488.71 69.995C478.46 73.07 468.62 79.425 464.315 89.88C466.365 100.54 467.185 110.79 465.135 121.655C463.905 131.495 475.18 135.595 482.97 135.39C490.76 135.185 494.655 127.6 493.22 122.68C491.99 117.76 487.89 113.25 486.865 112.225C486.045 111.2 485.225 108.74 487.07 108.74C490.555 108.74 492.4 108.74 496.705 108.74ZM570.239 110.175C571.469 121.04 576.594 130.675 578.234 141.54C578.234 142.975 577.209 144 575.774 144C568.804 144 565.319 144 558.349 144C556.504 144 555.274 142.36 556.709 140.31C562.859 132.11 559.989 119.4 559.374 110.38C558.759 98.08 563.064 76.35 543.179 76.555C536.209 76.555 533.749 78.81 534.569 83.935C537.234 100.54 537.439 113.865 534.774 130.47C533.749 138.26 539.899 140.31 540.719 141.335C541.744 142.155 540.719 144 539.079 144C538.054 144 534.979 144 533.339 144C532.929 144 532.724 144 532.109 144C528.009 144 525.754 144 521.654 144C521.244 144 520.834 144 520.424 144C518.784 144 515.709 144 514.684 144C513.044 144 512.224 142.155 513.249 141.335C514.274 140.31 520.629 138.465 522.884 130.675C525.754 120.63 528.214 112.02 527.189 101.565C526.164 91.52 520.834 82.705 520.834 72.455C520.834 63.845 524.319 56.055 525.959 47.65C528.624 35.35 526.574 26.33 522.884 14.44C520.629 6.445 514.274 4.39499 513.249 3.57499C512.019 2.54999 513.044 0.704988 514.684 0.704988C515.709 0.704988 518.784 0.704988 520.424 0.704988C520.834 0.704988 521.244 0.704988 521.654 0.704988C525.549 0.704988 527.599 0.704988 531.494 0.704988C532.314 0.704988 532.724 0.704988 533.339 0.704988C536.414 0.704988 542.974 0.49999 547.689 0.704988C566.344 1.31999 571.879 17.72 570.239 33.915C568.394 52.16 566.344 70.2 542.974 71.43C568.599 71.635 570.034 88.855 570.239 110.175ZM534.774 59.745C534.569 62 535.799 66.92 541.744 66.305C555.889 65.28 558.759 45.805 559.989 34.325C561.014 25.1 560.194 9.52 547.689 9.10999C539.284 8.90499 535.594 18.54 536.619 25.715C537.849 37.605 536.619 48.06 534.774 59.745ZM637.442 108.74C638.672 108.74 639.697 109.97 639.902 111.2C641.542 121.655 646.462 131.085 647.897 141.54C647.897 142.975 646.872 144 645.437 144C631.292 144 617.147 144 603.002 144C598.287 144 596.032 144 591.317 144C590.907 144 590.497 144 590.087 144C588.447 144 585.372 144 584.347 144C582.707 144 581.887 142.155 582.912 141.335C583.937 140.31 590.292 138.465 592.547 130.675C595.417 120.63 597.877 112.02 596.852 101.565C595.827 91.52 590.497 82.705 590.497 72.455C590.497 63.845 593.982 56.055 595.622 47.65C598.287 35.35 596.237 26.33 592.547 14.44C590.292 6.445 583.937 4.39499 582.912 3.57499C581.682 2.54999 582.707 0.704988 584.347 0.704988C585.372 0.704988 588.447 0.704988 590.087 0.704988C590.497 0.704988 590.907 0.704988 591.317 0.704988C596.032 0.704988 598.287 0.704988 603.002 0.704988C617.147 0.704988 631.292 0.704988 645.437 0.704988C646.872 0.704988 647.897 1.73 647.897 3.16499C646.462 13.62 641.542 23.05 639.902 33.505C639.697 34.94 638.672 35.965 637.442 35.965C633.137 35.965 631.292 35.965 627.807 35.965C625.962 35.965 626.782 33.505 627.602 32.48C628.627 31.455 632.727 26.945 633.957 22.025C635.392 17.105 631.497 9.52 623.707 9.315C615.917 9.315 604.642 13.415 605.872 23.05C608.332 41.5 603.617 58.31 603.207 76.555C610.587 69.995 620.017 65.28 629.242 62.82C635.392 61.18 636.212 56.67 636.827 55.645C637.442 54.825 639.492 55.645 639.902 57.285C640.312 58.105 640.722 59.95 641.132 61.385C641.542 63.025 641.952 64.255 641.952 64.255C642.362 66.1 642.567 66.92 642.772 68.765C642.772 68.765 642.772 68.97 642.772 69.38C642.977 70.815 642.977 74.505 642.772 75.735C642.567 77.375 640.517 78.4 639.697 77.375C638.877 76.35 636.417 67.945 629.447 69.995C619.197 73.07 609.357 79.425 605.052 89.88C607.102 100.54 607.922 110.79 605.872 121.655C604.642 131.495 615.917 135.595 623.707 135.39C631.497 135.185 635.392 127.6 633.957 122.68C632.727 117.76 628.627 113.25 627.602 112.225C626.782 111.2 625.962 108.74 627.807 108.74C631.292 108.74 633.137 108.74 637.442 108.74ZM763.601 76.35C770.776 96.645 780.206 106.895 763.191 126.165C756.221 133.955 747.611 143.385 736.746 144.205C736.746 144.205 736.746 144.205 736.541 144.205C725.471 143.59 716.246 133.135 709.481 125.345C691.851 104.845 709.071 90.905 710.096 73.89C711.326 56.055 690.211 40.065 708.866 18.54C715.836 10.545 725.266 0.909997 736.541 0.704988C736.746 0.704988 736.746 0.704988 736.746 0.704988C754.581 0.49999 761.346 18.335 766.061 32.275C766.471 33.505 765.651 34.94 764.216 35.35C759.091 36.785 756.221 37.4 750.686 38.835C749.456 39.245 748.431 38.425 748.431 37.4C748.431 28.995 749.046 9.72499 736.131 9.315C727.931 9.92999 721.781 17.72 717.886 24.075C707.226 41.295 722.601 59.13 722.806 72.455C722.806 85.78 708.866 103.82 719.116 120.835C723.011 127.19 728.546 134.98 736.746 135.595C754.991 133.545 761.141 107.305 757.656 93.365C756.016 89.88 752.531 83.73 748.636 83.32C748.431 83.32 748.226 83.32 748.021 83.32C744.126 83.32 740.846 87.42 740.026 88.445C739.001 89.47 736.746 90.29 736.746 87.625C736.746 83.115 736.746 80.86 736.746 76.35C736.746 75.12 737.361 73.89 738.181 73.89C742.896 73.89 745.151 73.89 750.686 73.89C753.761 73.89 755.401 73.89 759.091 73.89C759.706 73.89 760.116 73.89 760.731 73.89C762.166 73.89 763.191 75.12 763.601 76.35ZM829.687 111.2C831.327 121.655 836.247 131.085 837.682 141.54C837.682 142.975 836.657 144 835.222 144C821.077 144 806.932 144 792.787 144C788.072 144 785.817 144 781.102 144C780.692 144 780.282 144 779.872 144C778.232 144 775.157 144 774.132 144C772.492 144 771.672 142.155 772.697 141.335C773.722 140.31 780.077 138.465 782.332 130.675C785.202 120.63 787.662 112.02 786.637 101.565C785.612 91.52 780.282 82.705 780.282 72.455C780.282 63.64 783.972 56.055 785.817 47.65C788.482 35.35 786.227 26.33 782.537 14.44C780.077 6.445 773.722 4.39499 772.697 3.57499C771.467 2.54999 772.492 0.704988 774.132 0.704988C775.157 0.704988 778.232 0.704988 779.872 0.704988C780.282 0.704988 780.692 0.704988 781.102 0.704988C785.202 0.704988 787.457 0.704988 791.557 0.704988C792.172 0.704988 792.377 0.704988 792.787 0.704988C794.427 0.704988 797.502 0.704988 798.527 0.704988C800.167 0.704988 801.192 2.54999 800.372 3.57499C799.347 4.39499 793.197 6.445 794.837 14.235C800.167 35.555 794.632 47.035 793.197 67.945C791.762 86.19 797.912 103.205 795.657 121.655C794.427 131.495 805.702 135.595 813.492 135.39C821.282 135.185 825.177 127.6 823.742 122.68C822.512 117.76 818.412 113.25 817.387 112.225C816.567 111.2 815.747 108.74 817.592 108.74C821.077 108.74 822.922 108.74 827.227 108.74C828.457 108.74 829.482 109.97 829.687 111.2ZM888.755 37.605C891.83 50.315 901.055 63.025 900.44 73.89C900.235 83.32 892.445 94.39 889.165 105.255C887.32 111.815 887.32 118.785 885.475 125.345C883.015 134.57 876.66 144 866 144.205C865.795 144.205 865.795 144.205 865.795 144.205C854.93 143.795 848.985 134.775 846.32 125.345C844.27 117.145 844.27 109.355 841.195 101.36C837.71 91.93 831.56 82.295 831.355 73.89C830.74 63.025 839.965 50.315 843.04 37.605C844.475 31.25 843.86 24.69 845.5 18.54C848.165 8.69999 854.93 0.909997 865.795 0.704988C865.795 0.704988 865.795 0.704988 866 0.704988C876.865 0.909997 883.63 8.69999 886.295 18.54C887.935 24.69 887.32 31.25 888.755 37.605ZM876.66 120.835C879.94 105.05 886.09 86.19 886.295 72.455C886.295 58.72 879.94 40.065 876.66 24.075C875.43 17.72 873.79 9.92999 866 9.315H865.795C858.005 9.92999 856.365 17.72 855.135 24.075C851.855 40.065 845.5 58.72 845.5 72.455C845.705 86.19 851.65 104.845 855.135 120.835C856.365 127.395 858.005 134.57 865.795 135.595C865.795 135.595 865.795 135.595 866 135.595C873.79 134.775 875.43 127.19 876.66 120.835ZM962.222 110.175C963.452 121.04 968.577 130.675 970.217 141.54C970.217 142.975 969.192 144 967.757 144C960.787 144 957.302 144 950.332 144C948.487 144 947.257 142.36 948.692 140.31C954.842 132.11 951.972 119.4 951.357 110.38C950.742 98.08 955.047 76.35 935.162 76.555C928.192 76.555 925.732 78.81 926.552 83.935C929.217 100.54 929.422 113.865 926.757 130.47C925.732 138.26 931.882 140.31 932.702 141.335C933.727 142.155 932.702 144 931.062 144C930.037 144 926.962 144 925.322 144C924.912 144 924.707 144 924.092 144C919.992 144 917.737 144 913.637 144C913.227 144 912.817 144 912.407 144C910.767 144 907.692 144 906.667 144C905.027 144 904.207 142.155 905.232 141.335C906.257 140.31 912.612 138.465 914.867 130.675C917.737 120.63 920.197 112.02 919.172 101.565C918.147 91.52 912.817 82.705 912.817 72.455C912.817 63.845 916.302 56.055 917.942 47.65C920.607 35.35 918.557 26.33 914.867 14.44C912.612 6.445 906.257 4.39499 905.232 3.57499C904.002 2.54999 905.027 0.704988 906.667 0.704988C907.692 0.704988 910.767 0.704988 912.407 0.704988C912.817 0.704988 913.227 0.704988 913.637 0.704988C917.532 0.704988 919.582 0.704988 923.477 0.704988C924.297 0.704988 924.707 0.704988 925.322 0.704988C928.397 0.704988 934.957 0.49999 939.672 0.704988C958.327 1.31999 963.862 17.72 962.222 33.915C960.377 52.16 958.327 70.2 934.957 71.43C960.582 71.635 962.017 88.855 962.222 110.175ZM926.757 59.745C926.552 62 927.782 66.92 933.727 66.305C947.872 65.28 950.742 45.805 951.972 34.325C952.997 25.1 952.177 9.52 939.672 9.10999C931.267 8.90499 927.577 18.54 928.602 25.715C929.832 37.605 928.602 48.06 926.757 59.745ZM1033.59 3.16499C1031.95 14.03 1026.83 23.665 1025.6 34.53C1025.8 51.34 1027.85 67.125 1008.38 72.045C1011.66 95.62 1019.04 106.69 1011.04 130.47C1008.38 138.26 1014.94 140.31 1015.76 141.335C1016.78 142.155 1015.76 144 1014.12 144C1012.89 144 1010.02 144 1008.38 144C1007.76 144 1007.56 144 1007.15 144C1002.84 144 1000.79 144 996.692 144C996.077 144 995.872 144 995.462 144C993.617 144 990.747 144 989.722 144C988.082 144 987.057 142.155 988.082 141.335C989.312 140.31 995.462 138.465 997.922 130.675C1006.12 106.69 998.742 95.62 995.462 72.045C975.987 67.125 977.832 51.34 978.242 34.53C976.807 23.665 971.682 14.03 970.247 3.16499C970.042 1.73 971.067 0.704988 972.502 0.704988C979.472 0.704988 982.957 0.704988 989.927 0.704988C991.772 0.704988 993.207 2.34499 991.567 4.39499C985.417 12.8 988.287 25.1 988.902 34.325C989.517 44.78 984.802 64.05 999.972 67.535C1001.2 67.945 1002.64 67.945 1003.87 67.535C1018.63 63.845 1014.32 45.19 1014.94 34.325C1015.35 25.305 1018.22 12.595 1012.07 4.39499C1010.63 2.34499 1011.86 0.704988 1013.71 0.704988C1020.68 0.704988 1024.16 0.704988 1031.13 0.704988C1032.57 0.704988 1033.59 1.73 1033.59 3.16499Z" fill="#FFA8F6"/>
</svg>
