<svg width="23" height="22" viewBox="0 0 23 22" fill="none" xmlns="http://www.w3.org/2000/svg">
<path d="M20.1623 0H2.38455C2.08986 0 1.80725 0.116448 1.59887 0.323727C1.3905 0.531005 1.27344 0.812136 1.27344 1.10527V3.96793C1.27344 4.54598 1.5101 5.11409 1.92122 5.52304L7.9401 11.5103V19.8949C7.94032 20.0832 7.98885 20.2683 8.0811 20.4328C8.17335 20.5972 8.30627 20.7355 8.46726 20.8346C8.62826 20.9336 8.81201 20.9902 9.00111 20.9988C9.19021 21.0075 9.37841 20.968 9.54788 20.8841L13.9923 18.6736C14.369 18.4857 14.6068 18.1032 14.6068 17.6843V11.5103L20.6257 5.52304C21.0368 5.11409 21.2734 4.54598 21.2734 3.96793V1.10527C21.2734 0.812136 21.1564 0.531005 20.948 0.323727C20.7396 0.116448 20.457 0 20.1623 0Z" fill="#D9FF5A"/>
</svg>
