<svg width="18" height="17" viewBox="0 0 18 17" fill="none" xmlns="http://www.w3.org/2000/svg">
<path d="M15.7662 2.2377C15.3753 1.84531 14.9111 1.53404 14.4002 1.32168C13.8893 1.10931 13.3417 1 12.7887 1C12.2357 1 11.6881 1.10931 11.1772 1.32168C10.6663 1.53404 10.2021 1.84531 9.81116 2.2377L8.9998 3.05166L8.18843 2.2377C7.39874 1.44548 6.32768 1.00041 5.21089 1.00041C4.09409 1.00041 3.02303 1.44548 2.23334 2.2377C1.44365 3.02993 1 4.10441 1 5.22479C1 6.34516 1.44365 7.41965 2.23334 8.21187L3.0447 9.02583L8.9998 15L14.9549 9.02583L15.7662 8.21187C16.1574 7.81967 16.4677 7.354 16.6793 6.84146C16.891 6.32893 17 5.77957 17 5.22479C17 4.67 16.891 4.12064 16.6793 3.60811C16.4677 3.09558 16.1574 2.6299 15.7662 2.2377Z" fill="white"/>
<path d="M15.7662 2.2377L15.0578 2.94351L15.0582 2.94384L15.7662 2.2377ZM12.7887 1V2V1ZM9.81116 2.2377L10.5194 2.94368L10.5196 2.94351L9.81116 2.2377ZM8.9998 3.05166L8.29156 3.75764L8.9998 4.46814L9.70803 3.75764L8.9998 3.05166ZM8.18843 2.2377L7.4802 2.94368V2.94368L8.18843 2.2377ZM2.23334 8.21187L2.94158 7.5059H2.94158L2.23334 8.21187ZM3.0447 9.02583L2.33647 9.73181H2.33647L3.0447 9.02583ZM8.9998 15L8.29156 15.706L8.9998 16.4165L9.70803 15.706L8.9998 15ZM14.9549 9.02583L15.6631 9.73181H15.6631L14.9549 9.02583ZM15.7662 8.21187L15.0582 7.50573L15.058 7.5059L15.7662 8.21187ZM16.4747 1.53189C15.991 1.04645 15.4165 0.661185 14.7841 0.398275L14.0164 2.24508C14.4057 2.4069 14.7596 2.64418 15.0578 2.94351L16.4747 1.53189ZM14.7841 0.398275C14.1516 0.135363 13.4735 0 12.7887 0V2C13.2099 2 13.6271 2.08325 14.0164 2.24508L14.7841 0.398275ZM12.7887 0C12.1039 0 11.4258 0.135363 10.7934 0.398275L11.561 2.24508C11.9503 2.08325 12.3675 2 12.7887 2V0ZM10.7934 0.398275C10.1609 0.661185 9.58642 1.04645 9.10276 1.53189L10.5196 2.94351C10.8178 2.64418 11.1717 2.4069 11.561 2.24508L10.7934 0.398275ZM9.10292 1.53173L8.29156 2.34569L9.70803 3.75764L10.5194 2.94368L9.10292 1.53173ZM9.70803 2.34569L8.89667 1.53173L7.4802 2.94368L8.29156 3.75764L9.70803 2.34569ZM8.89667 1.53173C7.91969 0.551614 6.59393 0.000410616 5.21089 0.000410616V2.00041C6.06143 2.00041 6.87779 2.33934 7.4802 2.94368L8.89667 1.53173ZM5.21089 0.000410616C3.82784 0.000410676 2.50209 0.551614 1.5251 1.53173L2.94158 2.94368C3.54398 2.33934 4.36034 2.00041 5.21089 2.00041V0.000410616ZM1.5251 1.53173C0.548228 2.51173 0 3.84023 0 5.22479H2C2 4.3686 2.33906 3.54812 2.94158 2.94368L1.5251 1.53173ZM0 5.22479C0 6.60935 0.548228 7.93784 1.5251 8.91785L2.94158 7.5059C2.33906 6.90145 2 6.08097 2 5.22479H0ZM1.5251 8.91785L2.33647 9.73181L3.75294 8.31986L2.94158 7.5059L1.5251 8.91785ZM2.33647 9.73181L8.29156 15.706L9.70803 14.294L3.75294 8.31986L2.33647 9.73181ZM9.70803 15.706L15.6631 9.73181L14.2467 8.31986L8.29156 14.294L9.70803 15.706ZM15.6631 9.73181L16.4745 8.91784L15.058 7.5059L14.2467 8.31986L15.6631 9.73181ZM16.4743 8.91801C16.9582 8.4328 17.3419 7.85687 17.6036 7.22321L15.7551 6.45971C15.5934 6.85112 15.3566 7.20654 15.0582 7.50573L16.4743 8.91801ZM17.6036 7.22321C17.8653 6.58956 18 5.91049 18 5.22479H16C16 5.64866 15.9167 6.0683 15.7551 6.45971L17.6036 7.22321ZM18 5.22479C18 4.53908 17.8653 3.86001 17.6036 3.22636L15.7551 3.98986C15.9167 4.38127 16 4.80092 16 5.22479H18ZM17.6036 3.22636C17.3419 2.5927 16.9582 2.01677 16.4743 1.53156L15.0582 2.94384C15.3566 3.24304 15.5934 3.59845 15.7551 3.98986L17.6036 3.22636Z" fill="#FFB1F7"/>
</svg>
