<svg width="25" height="24" viewBox="0 0 25 24" fill="none" xmlns="http://www.w3.org/2000/svg">
<path fill-rule="evenodd" clip-rule="evenodd" d="M5.11344 3.94L4.91344 6.39C4.87344 6.86 5.24344 7.25 5.71344 7.25H21.0234C21.4434 7.25 21.7934 6.93 21.8234 6.51C21.9534 4.74 20.6034 3.3 18.8334 3.3H6.54344C6.44344 2.86 6.24344 2.44 5.93344 2.09C5.43344 1.56 4.73344 1.25 4.01344 1.25H2.27344C1.86344 1.25 1.52344 1.59 1.52344 2C1.52344 2.41 1.86344 2.75 2.27344 2.75H4.01344C4.32344 2.75 4.61344 2.88 4.82344 3.1C5.03344 3.33 5.13344 3.63 5.11344 3.94ZM10.2734 20.75C10.2734 21.7165 9.48994 22.5 8.52344 22.5C7.55694 22.5 6.77344 21.7165 6.77344 20.75C6.77344 19.7835 7.55694 19 8.52344 19C9.48994 19 10.2734 19.7835 10.2734 20.75ZM18.2734 20.75C18.2734 21.7165 17.4899 22.5 16.5234 22.5C15.5569 22.5 14.7734 21.7165 14.7734 20.75C14.7734 19.7835 15.5569 19 16.5234 19C17.4899 19 18.2734 19.7835 18.2734 20.75ZM5.44349 8.75H20.7835C21.2535 8.75 21.6135 9.14 21.5735 9.6L21.2435 14.27C21.1335 15.77 19.8135 17 18.3135 17H7.19349C5.48349 17 4.14349 15.54 4.28349 13.83L4.64349 9.48C4.68349 9.07 5.02349 8.75 5.44349 8.75Z" fill="#D9FF5A"/>
</svg>
