<svg width="29" height="29" viewBox="0 0 29 29" fill="none" xmlns="http://www.w3.org/2000/svg">
<path d="M26.1489 6.08394C24.169 5.87956 22.189 5.72628 20.1968 5.61131V5.59854L19.9262 3.93796C19.7417 2.76277 19.4712 1 16.5935 1H13.3715C10.5061 1 10.2355 2.68613 10.0388 3.92518L9.7805 5.56022C8.6368 5.63686 7.4931 5.7135 6.34941 5.82847L3.84065 6.08394C3.32414 6.13504 2.95521 6.60766 3.0044 7.13139C3.05359 7.65511 3.49631 8.03832 4.01282 7.98723L6.52158 7.73175C12.9656 7.06752 19.4589 7.32299 25.9767 8C26.0136 8 26.0382 8 26.0751 8C26.5424 8 26.9483 7.62956 26.9975 7.13139C27.0344 6.60766 26.6654 6.13504 26.1489 6.08394Z" fill="#D9FF5A"/>
<path d="M22.5935 9.46769C22.3082 9.16789 21.916 9 21.5119 9H6.48813C6.08401 9 5.67989 9.16789 5.40651 9.46769C5.13314 9.76749 4.97862 10.1752 5.0024 10.5949L5.73932 22.8987C5.87006 24.7215 6.03647 27 10.1846 27H17.8154C21.9635 27 22.1299 24.7335 22.2607 22.8987L22.9976 10.6069C23.0214 10.1752 22.8669 9.76749 22.5935 9.46769ZM15.9731 20.992H12.0151C11.5277 20.992 11.1236 20.5843 11.1236 20.0926C11.1236 19.6009 11.5277 19.1932 12.0151 19.1932H15.9731C16.4604 19.1932 16.8645 19.6009 16.8645 20.0926C16.8645 20.5843 16.4604 20.992 15.9731 20.992ZM16.9715 16.1952H11.0285C10.5412 16.1952 10.1371 15.7875 10.1371 15.2958C10.1371 14.8041 10.5412 14.3964 11.0285 14.3964H16.9715C17.4588 14.3964 17.8629 14.8041 17.8629 15.2958C17.8629 15.7875 17.4588 16.1952 16.9715 16.1952Z" fill="#D9FF5A"/>
</svg>
