<svg width="40" height="41" viewBox="0 0 40 41" fill="none" xmlns="http://www.w3.org/2000/svg">
<circle cx="19.801" cy="20.5998" r="19.8" fill="white"/>
<path d="M28.001 16.2232C27.4126 16.4638 26.7805 16.6263 26.116 16.6998C26.8016 16.3213 27.3146 15.7255 27.5592 15.0238C26.915 15.3768 26.21 15.6253 25.4748 15.7584C24.9804 15.2714 24.3255 14.9486 23.6119 14.8401C22.8982 14.7316 22.1658 14.8436 21.5281 15.1585C20.8905 15.4735 20.3834 15.9738 20.0856 16.5819C19.7878 17.19 19.716 17.8717 19.8812 18.5213C18.5759 18.4609 17.299 18.1479 16.1334 17.6027C14.9677 17.0575 13.9394 16.2922 13.115 15.3566C12.8332 15.8052 12.6711 16.3253 12.6711 16.8792C12.6708 17.3778 12.8039 17.8688 13.0586 18.3086C13.3133 18.7484 13.6817 19.1234 14.1312 19.4003C13.6099 19.385 13.1002 19.255 12.6443 19.0213V19.0603C12.6443 19.7596 12.9065 20.4375 13.3865 20.9787C13.8664 21.52 14.5346 21.8915 15.2776 22.03C14.7941 22.1507 14.2871 22.1685 13.795 22.082C14.0047 22.6837 14.413 23.2099 14.9629 23.5869C15.5128 23.9639 16.1767 24.1728 16.8617 24.1844C15.6989 25.0266 14.2629 25.4834 12.7846 25.4814C12.5227 25.4815 12.261 25.4673 12.001 25.4391C13.5015 26.3292 15.2483 26.8016 17.0322 26.7998C23.0712 26.7998 26.3725 22.1853 26.3725 18.1833C26.3725 18.0533 26.369 17.922 26.3626 17.7919C27.0048 17.3635 27.5591 16.833 27.9996 16.2252L28.001 16.2232Z" fill="#AE97E8"/>
</svg>
