<svg width="12" height="15" viewBox="0 0 12 15" fill="none" xmlns="http://www.w3.org/2000/svg">
<path d="M0.641094 9.42V7.74H2.38109V0.799999H6.48109C7.94776 0.799999 9.10776 1.19333 9.96109 1.98C10.8278 2.75333 11.2611 3.78667 11.2611 5.08C11.2611 6.37333 10.8278 7.42 9.96109 8.22C9.10776 9.02 7.94776 9.42 6.48109 9.42H4.10109V11.02H8.24109V12.12H4.10109V15H2.38109V12.12H0.641094V11.02H2.38109V9.42H0.641094ZM4.10109 7.74H6.44109C7.40109 7.74 8.13443 7.50667 8.64109 7.04C9.16109 6.56 9.42109 5.90667 9.42109 5.08C9.42109 4.26667 9.16109 3.63333 8.64109 3.18C8.13443 2.71333 7.40109 2.48 6.44109 2.48H4.10109V7.74Z" fill="white"/>
</svg>
