<svg width="40" height="41" viewBox="0 0 40 41" fill="none" xmlns="http://www.w3.org/2000/svg">
<circle cx="19.799" cy="20.5998" r="19.8" fill="white"/>
<g clip-path="url(#clip0_11120_1882)">
<path d="M15.6498 27.5498H12.3845V17.0344H15.6498V27.5498ZM14.0151 15.6001C12.9711 15.6001 12.124 14.7349 12.124 13.6909C12.124 13.1894 12.3233 12.7084 12.6779 12.3537C13.0326 11.999 13.5136 11.7998 14.0151 11.7998C14.5167 11.7998 14.9977 11.999 15.3524 12.3537C15.707 12.7084 15.9063 13.1894 15.9063 13.6909C15.9063 14.7349 15.0591 15.6001 14.0151 15.6001ZM27.8706 27.5498H24.6126V22.4311C24.6126 21.211 24.5879 19.6467 22.915 19.6467C21.2174 19.6467 20.957 20.9719 20.957 22.3433V27.5498H17.695V17.0344H20.8265V18.4688H20.872C21.308 17.6425 22.3728 16.7706 23.9613 16.7706C27.266 16.7706 27.8735 18.9469 27.8735 21.7735V27.5498H27.8706Z" fill="#AE97E8"/>
</g>
<defs>
<clipPath id="clip0_11120_1882">
<rect width="18" height="18" fill="white" transform="translate(10.999 11.7998)"/>
</clipPath>
</defs>
</svg>
