<svg width="11" height="15" viewBox="0 0 11 15" fill="none" xmlns="http://www.w3.org/2000/svg">
<path d="M0.0200001 9.42V7.74H1.76V0.799999H5.86C7.32667 0.799999 8.48667 1.19333 9.34 1.98C10.2067 2.75333 10.64 3.78667 10.64 5.08C10.64 6.37333 10.2067 7.42 9.34 8.22C8.48667 9.02 7.32667 9.42 5.86 9.42H3.48V11.02H7.62V12.12H3.48V15H1.76V12.12H0.0200001V11.02H1.76V9.42H0.0200001ZM3.48 7.74H5.82C6.78 7.74 7.51333 7.50667 8.02 7.04C8.54 6.56 8.8 5.90667 8.8 5.08C8.8 4.26667 8.54 3.63333 8.02 3.18C7.51333 2.71333 6.78 2.48 5.82 2.48H3.48V7.74Z" fill="#D9FF5A"/>
</svg>
